<svg id="hover" xmlns="http://www.w3.org/2000/svg" viewBox="0 0 500 500"><defs><style>.cls-1{fill:#2e5644;}.cls-2{fill:#409873;}.cls-3,.cls-5{fill:#52c18e;}.cls-4{fill:#de1651;}.cls-5{opacity:0;}</style></defs><path class="cls-1" d="M389.29,389.41q0-70.07.1-140.14L249.86,329.92q0,69.91.08,139.82Z"/><path class="cls-2" d="M249.86,329.92,110.61,249.28v140l139.33,80.5Q249.9,399.84,249.86,329.92Z"/><path class="cls-3" d="M389.39,249.27,250,168.8,110.61,249.28l139.25,80.64Z"/><path class="cls-2" d="M334.71,280.86,195.28,200.12,171,214.36,310.46,294.9Z"/><path class="cls-4" d="M208,394.09v-3a3.68,3.68,0,0,0-1.43-2.56q-12.51-10.35-12.65-14c0-1.12.8-2.08,5.73-1.89,4.41.16,11.47,1.23,21.44,5.79,1,.56,1.78.22,1.77-.76v-8.29a3.7,3.7,0,0,0-1.78-2.8l-24.37-14-25.06-14.42c-1-.56-1.77-.22-1.77.76l0,14.35a3.67,3.67,0,0,0,1.77,2.8h0c1.49,1.36,3.77,3.68,4.14,5.63.59,3-3.55,4.61-10.89,2.89-1-.56-1.77-.23-1.77.76v3a3.71,3.71,0,0,0,1.77,2.8l41.27,23.74C207.22,395.41,208,395.07,208,394.09Z"/><path class="cls-4" d="M165.55,334.56l-5.32-3.06-20.15-11.61c-.66-.38-1.18-.15-1.18.5v.42a2.26,2.26,0,0,0,.57,1.34l0,0,.07.08,16.8,18.58.21.23v0h0a4.1,4.1,0,0,0,.71.55l8.28,4.77c1,.56,1.77.23,1.77-.76v-8.28A3.7,3.7,0,0,0,165.55,334.56Z"/><path class="cls-4" d="M347.26,367.63v-3.08c0-.87-.62-1.24-1.45-.93q-12.75,4.19-12.89.6c0-1.1.82-3.07,5.84-8.67a126.14,126.14,0,0,1,21.84-19.33,3.76,3.76,0,0,0,1.81-2.85l0-8.43c0-1-.81-1.33-1.81-.76l-24.83,14.39-25.52,14.78a3.77,3.77,0,0,0-1.81,2.86l0,14.58c0,1,.82,1.34,1.81.76h0c1.52-.37,3.84-.68,4.22.85.59,2.4-3.62,8.88-11.09,15.76A3.75,3.75,0,0,0,301.6,391v3.08c0,1,.81,1.33,1.81.75l42-24.35A3.75,3.75,0,0,0,347.26,367.63Z"/><path class="cls-4" d="M304,356.94l-5.42,3.14L278.06,372a2.5,2.5,0,0,0-1.2,1.9v.43c0,.44.23.68.58.69h.09l17.12-.83h.22a2,2,0,0,0,.72-.26L304,369a3.76,3.76,0,0,0,1.81-2.85V357.7C305.82,356.7,305,356.36,304,356.94Z"/><rect class="cls-5" x="233.88" y="30.26" width="67.72" height="137.7"/></svg>