<svg id="no_hover" xmlns="http://www.w3.org/2000/svg" viewBox="0 0 500 500"><defs><style>.cls-1,.cls-2{fill:none;stroke-linecap:round;stroke-miterlimit:10;stroke-width:15px;}.cls-1{stroke:#00df9a;}.cls-2{stroke:#fff;}</style></defs><path class="cls-1" d="M402.49,393.7l54,32.77a8,8,0,0,1-4,15H437c-167.4.16-184.87-.13-207.53,0-114.64.65-189.89-95.38-189.89-190.87,0-105.95,80.36-191.33,192.05-192,114.06-.74,194.6,69.61,194.6,192,0,6.65-1.31,67.45-47.52,110.17-64.19,59.36-159.19,32.09-178,24.85-25.73-9.89-46.38-26.19-46.38-26.19-5-3.89-8.89-7.43-11.58-10,0,0-5.37-4.66-17.74-19.28a6.61,6.61,0,0,1-1.78-4,6.31,6.31,0,0,1,1.09-3.58c3.32-5.47,5.95-11.33,9-16.95a10.92,10.92,0,0,0,1.19-3.1,12.1,12.1,0,0,0-.69-6.51c-1.2-3.64-2.45-7.45-5.9-10.64-3.86-3.58-8.61-4.68-12.93-5.67-3.22-.75-6.27-2.08-9.49-2.81a6.35,6.35,0,0,1-3.21-1.59,6.85,6.85,0,0,1-1.77-4.33c-1.95-19.83-1.47-26-.52-38.34a10.4,10.4,0,0,1,2.38-6.55c.8-.86,1.76-1.51,5.82-2.87,4.29-1.43,9.34-2.75,14.83-4.4a12.49,12.49,0,0,0,3.26-1.37c1.1-.69,2.89-2.08,4.84-5.9,1.62-3.16,3.46-6.76,3.18-11.43-.17-2.94-1.66-5.87-4.64-11.72-2.7-5.29-4-7.93-4.67-8.73-1.3-1.68-2.83-3.23-2.55-5.12a4.87,4.87,0,0,1,2.11-3c5.3-4,5.62-9.1,19.94-22,6.41-5.78,9.67-8.67,12.95-8.78s3.87,1.3,13.51,5.62c10.11,4.51,12.84,4.55,14.4,4.46,3.95-.24,7-1.75,10-3.25a11.68,11.68,0,0,0,5.1-4.09,9.84,9.84,0,0,0,1.16-2.59c1.91-6.33,4.31-12.51,5.8-19a6.07,6.07,0,0,1,1.89-3.42,5.52,5.52,0,0,1,3-1.17c11.91-1.4,30.42-1.2,34.05-1.19a19.35,19.35,0,0,1,8,1.53,13,13,0,0,1,3.76,2.27c1,.94,2.18,2.36,4.25,9.66.56,2,1.47,5.33,2.89,10.11a13.22,13.22,0,0,0,1.28,3.33c.58,1,2,3,6.53,5.06,3.49,1.63,7.11,3.31,11.77,2.88,3.49-.31,5.89-1.66,10.36-4.17,3.42-1.91,7-3.5,10.32-5.64a6.4,6.4,0,0,1,3.77-1.24,6.6,6.6,0,0,1,3.89,1.73c10.21,8.6,15,14.29,21.44,19.7,0,0,7.59,6.36,8.63,11.73a8.87,8.87,0,0,1,.12,1.11,8.45,8.45,0,0,1-.09,1.48c-.62,3.82-5.61,12.13-5.61,12.13-1.61,2.68-4.63,7.71-4.39,14,.16,4.11,1.68,7.2,3.26,10.43a11.51,11.51,0,0,0,4,5,9.87,9.87,0,0,0,2.74,1.22c6.14,1.79,12.19,3.9,18.37,5.54a6.92,6.92,0,0,1,3.53,1.91,7.34,7.34,0,0,1,1.72,4.51c1.67,20,1.11,29.1,1.11,29.1-.69,11-1,12.76-2.68,14.62-2.21,2.42-3.95,1.92-13.35,5.43-7.34,2.74-11.07,4.17-13.79,7.23a24.56,24.56,0,0,0-4.83,9.41,11.76,11.76,0,0,0-.64,6.33,10,10,0,0,0,1.11,2.84c3.09,5.59,5.69,11.47,9.05,16.92a6.74,6.74,0,0,1,1.2,4,6.55,6.55,0,0,1-1.66,3.7,229.54,229.54,0,0,1-20.66,22.22h0c-6.79,6.15-8.57,7.26-10.69,7.78a7.86,7.86,0,0,1-.88.17s-.3.05-.61.08c-5,.51-9.56-2.48-12.74-5.42"/><circle class="cls-2" cx="233.71" cy="250.56" r="51.66"/></svg>