<svg id="no_hover" xmlns="http://www.w3.org/2000/svg" viewBox="0 0 500 500"><defs><style>.cls-1{fill:#68dd9f;}.cls-2{fill:#fefefe;}.cls-3,.cls-5{fill:#1ea55e;}.cls-4{fill:#6c9;}.cls-5{opacity:0.45;}.cls-6{fill:#28af65;}.cls-7{fill:#23c172;}.cls-8{fill:#25af66;}.cls-9{fill:#2e5644;}.cls-10{fill:#409873;}.cls-11{fill:#52c18e;}.cls-12{fill:#44966d;}.cls-13{fill:#6cd3a0;}</style></defs><path class="cls-1" d="M109.89,323.48l5.11,3,3.67-2.18,3.38,3.3,10.89-6.37L131,317.88l3.83-2.26v-7.49l-3.24-1.87q-1.05-2.5-2.11-5l2.72-1.49-3.64-7.13-3.34.14-1.92-1.87-.7-4.1-5.71-3.4-3.19,1.88-3.84-3L99,288.67l1.92,3.36-4.48,2.63v6l3.84,3,1.29,3.75L99.63,310l2.57,6,4.43.34,2.61,2.28Z"/><path class="cls-2" d="M108.94,297.73a2.73,2.73,0,0,0-1.53.43c-1.15.75-1.29,2.29-1.41,3a13.9,13.9,0,0,0,5.86,13.23,7.48,7.48,0,0,0,4,1.17c2.23,0,3.06-2.05,3.32-3.64.85-5.26-3.75-11.15-6.23-12.9a6.91,6.91,0,0,0-3.72-1.35Zm-.52-3.1a9.58,9.58,0,0,1,5.25,1.82C119,300,122.38,308,121.44,313.8c-.61,3.77-2.23,4.92-5.27,4.92a9.58,9.58,0,0,1-5.25-1.82c-5.29-3.55-8.87-11.24-7.93-17C103.6,296.13,105.38,294.63,108.42,294.63Z"/><ellipse class="cls-2" cx="112.22" cy="307.36" rx="2.89" ry="4.35" transform="translate(-149.59 111.09) rotate(-33.09)"/><path class="cls-3" d="M103.48,286.05l3.23,3.36,7-4.11-3.84-3Z"/><path class="cls-3" d="M96.44,294.66h3.85l1.27-1.51-.64-1.13Z"/><path class="cls-3" d="M115,326.48c.58-1.28,1.15-2.57,1.73-3.85l1.94,1.67Z"/><path class="cls-4" d="M125.25,310l6.37-3.75,3.24,1.87-6.39,3.77Z"/><path class="cls-5" d="M125.25,310l-1.92-4.12c.82-.77,1.63-1.55,2.44-2.33l3.78-2.21,2.07,4.91Z"/><path class="cls-6" d="M125.81,303.54l-3.61-7.16,6.39-3.73,3.66,7.12Z"/><path class="cls-3" d="M118.86,296.51l-2.56-1.35-1.08-3.94,7.41-4.4c.26,1.39.53,2.79.79,4.18l1.83,1.79Z"/><path class="cls-7" d="M115.22,291.22l-5.33-3.67,7-4.13,5.71,3.4Z"/><path class="cls-7" d="M128.49,319.38l0-7.48,6.39-3.77v7.49Z"/><path class="cls-8" d="M128.49,319.38l2.58-1.53,1.87,3.38-5.7,3.33L124,320.48v-1.8Z"/><path class="cls-1" d="M155.85,273.67q3,1.74,5.93,3.49l4.26-2.54,3.93,3.83,12.63-7.38-2.21-3.9,4.44-2.62v-8.68l-3.76-2.18-2.44-5.79,3.15-1.72-4.23-8.28-3.87.16-2.23-2.17-.81-4.75L164,227.19l-3.71,2.19-4.46-3.5-12.63,7.41,2.23,3.89-5.2,3v6.93l4.46,3.49c.49,1.45,1,2.9,1.49,4.34L144,258q1.5,3.48,3,7l5.14.39,3,2.64Z"/><path class="cls-2" d="M154.76,243.8a3.23,3.23,0,0,0-1.78.49c-1.33.88-1.5,2.67-1.64,3.54a16.16,16.16,0,0,0,6.8,15.36,8.8,8.8,0,0,0,4.69,1.36c2.59,0,3.55-2.39,3.85-4.23,1-6.1-4.34-12.93-7.22-15a8.08,8.08,0,0,0-4.32-1.57Zm-.61-3.59a11.16,11.16,0,0,1,6.09,2.1c6.14,4.12,10.11,13.44,9,20.13-.71,4.38-2.59,5.71-6.12,5.71a11.1,11.1,0,0,1-6.09-2.11c-6.13-4.11-10.28-13-9.2-19.73C148.56,241.94,150.62,240.21,154.15,240.21Z"/><ellipse class="cls-2" cx="158.56" cy="254.97" rx="3.36" ry="5.04" transform="translate(-113.48 127.9) rotate(-33.09)"/><path class="cls-3" d="M148.42,230.24l3.74,3.9,8.15-4.76-4.46-3.5Z"/><path class="cls-3" d="M140.25,240.23l4.47,0,1.48-1.76-.75-1.31Z"/><path class="cls-3" d="M161.78,277.16q1-2.24,2-4.47l2.24,1.93Z"/><path class="cls-4" d="M173.68,258.05l7.39-4.36,3.76,2.18-7.42,4.36Z"/><path class="cls-5" d="M173.68,258.05l-2.22-4.78,2.82-2.7,4.39-2.57,2.4,5.69Z"/><path class="cls-6" d="M174.33,250.53l-4.19-8.3,7.41-4.33q2.13,4.14,4.25,8.27Z"/><path class="cls-3" d="M166.26,242.38l-3-1.57L162,236.25l8.6-5.11c.31,1.62.61,3.23.91,4.85l2.13,2.07Z"/><path class="cls-7" d="M162,236.25,155.85,232l8.17-4.79,6.62,3.95Z"/><path class="cls-7" d="M177.43,268.92l0-8.69,7.42-4.36v8.68Z"/><path class="cls-8" d="M177.43,268.92l3-1.77,2.17,3.92L176,274.93l-3.79-4.74,0-2.09Z"/><path class="cls-1" d="M174.47,359.44,185.65,366l8-4.77,7.39,7.21q11.88-7,23.78-13.9l-4.16-7.34,8.36-4.93V325.91L222,321.82l-4.61-10.91,5.94-3.24-8-15.58-7.28.3-4.2-4.09-1.52-8.94-12.48-7.45-7,4.13-8.4-6.59-23.78,13.94,4.2,7.34-9.8,5.74v13l8.4,6.57q1.39,4.08,2.81,8.18l-4.24,5.7q2.82,6.55,5.62,13.12l9.67.74,5.72,5Z"/><path class="cls-2" d="M172.42,303.19a6.07,6.07,0,0,0-3.36.93c-2.5,1.64-2.81,5-3.08,6.67-1.66,10.25,3.25,22.5,12.81,28.91a16.43,16.43,0,0,0,8.82,2.56c4.88,0,6.69-4.49,7.25-8,1.86-11.49-8.18-24.35-13.6-28.18a15.18,15.18,0,0,0-8.13-2.95C172.82,303.16,172.57,303.18,172.42,303.19Zm-1.15-6.77a20.9,20.9,0,0,1,11.47,4c11.55,7.75,19,25.3,17,37.91-1.33,8.23-4.88,10.74-11.52,10.74a20.9,20.9,0,0,1-11.47-4c-11.55-7.75-19.37-24.55-17.32-37.15C160.74,299.68,164.63,296.42,171.27,296.42Z"/><ellipse class="cls-2" cx="179.57" cy="324.23" rx="6.32" ry="9.49" transform="translate(-147.87 150.59) rotate(-33.09)"/><path class="cls-3" d="M160.48,277.66l7.05,7.34,15.34-9-8.4-6.59Z"/><path class="cls-3" d="M145.09,296.47l8.42,0,2.78-3.3-1.4-2.47Z"/><path class="cls-3" d="M185.65,366l3.78-8.41,4.24,3.64Z"/><path class="cls-4" d="M208,330,222,321.82l7.07,4.09-14,8.23Z"/><path class="cls-5" d="M208,330q-2.08-4.49-4.18-9l5.31-5.09,8.27-4.83L222,321.82Z"/><path class="cls-6" d="M209.28,315.87l-7.9-15.63,14-8.15,8,15.56Z"/><path class="cls-3" d="M194.08,300.52l-5.59-3L186.12,289l16.21-9.61,1.71,9.12,4,3.91Z"/><path class="cls-7" d="M186.12,289l-11.64-8,15.37-9,12.48,7.45Z"/><path class="cls-7" d="M215.11,350.48l0-16.34,14-8.23v16.36Z"/><path class="cls-8" d="M215.11,350.48l5.64-3.32,4.09,7.38-12.45,7.27-7.13-8.92,0-3.94Z"/><path class="cls-9" d="M403.62,367.28q0-76.26,0-152.53l-15.27,8.93,0,152.41Z"/><path class="cls-10" d="M403.61,214.75,190.29,91.54l-15.23,8.8L388.34,223.68Z"/><path class="cls-11" d="M388.71,223.67,175.05,100.35l.37,152.53L388.74,376.09Zm-10.5,134.87L185.23,247l-.06-129.08L378.29,229.32Q378.25,293.92,378.21,358.54Z"/><path class="cls-11" d="M363.66,373l-61.2,35.36-81.3-46.93c0-2.56,0-3.25-.08-5.8l49.71-30.74,92.59,42.24C363.51,369.77,363.53,370.28,363.66,373Z"/><path class="cls-12" d="M302,402.59l60.93-35.5-83.19-47.84-59,36.29Z"/><path class="cls-11" d="M301.91,373.07l-30.46-17.74q0-23.47.05-47L301.92,326Z"/><path class="cls-13" d="M301.92,326l10.19,6q.09,17.6.19,35.18l-10.39,5.88Z"/></svg>