<svg id="no_hover" xmlns="http://www.w3.org/2000/svg" viewBox="0 0 500 500"><defs><style>.cls-1{fill:#fff;opacity:0;}.cls-2{fill:#409873;}.cls-3{fill:#00df9a;}.cls-4{fill:#337e5e;}.cls-5{fill:#730325;}.cls-6{fill:#af0e40;}</style></defs><rect class="cls-1" x="278.47" y="98.36" width="37" height="58.18"/><path class="cls-2" d="M445.15,257.85q0-7.61,0-15.23L204,381.88,54.85,295.79V311q74.55,43,149.12,86.05Z"/><path class="cls-3" d="M296.06,156.53,54.85,295.79,204,381.88l241.2-139.26Zm-92.21,210L81.14,295.81,296.05,171.73,419,242.55Z"/><path class="cls-2" d="M195.21,255.25,151.36,230,107.5,255.27l43.86,25.32Z"/><path class="cls-4" d="M195.19,260.37l0-5.12-43.85,25.34L107.5,255.27v5.06l43.86,25.32Z"/><path class="cls-2" d="M256.61,305.86l-43.85-25.31L168.9,305.87l43.86,25.32Z"/><path class="cls-4" d="M256.59,311l0-5.12-43.85,25.33L168.9,305.87v5.07l43.86,25.32Z"/><path class="cls-2" d="M366.24,197,261,136.21l-21.92,12.66,105.24,60.95Z"/><path class="cls-4" d="M366.24,202.09V197l-21.95,12.78L239.05,148.87c0,1.66,0,3.32,0,5q50.76,29.29,101.47,58.69l3.8,2.2Z"/><path class="cls-2" d="M396.86,159.11,291.62,98.36,278.47,106,383.73,166.8Z"/><path class="cls-4" d="M396.86,164.17v-5.06l-13.13,7.69L278.47,106V111Q329.29,140.15,380,169.53l3.81,2.2Z"/><path class="cls-2" d="M322.38,242.59,217.12,181.84l-43.86,25.32,105.26,60.75Z"/><path class="cls-4" d="M322.38,247.65v-5.06l-43.86,25.32L173.26,207.16v5.07L278.53,273Z"/><path class="cls-5" d="M272.16,228.06v2l-11.54-6.65-15.89-9.14a1.48,1.48,0,0,0-1.77.1l-1.15,1.33h-2.42l2-2.26a.63.63,0,0,0,.15-.43h0V207.8H237v2l-8.19-4.71q-1.68-3.35-3.38-6.68l-2.12-.37v5.24h0a.58.58,0,0,0,.11.35h0l0,0,7.39,9.9a.47.47,0,0,0,.09.12h0a1.61,1.61,0,0,0,.4.32l5.24,3a1.77,1.77,0,0,0,1,.23V221h0a1.11,1.11,0,0,0,.62.89h0c.76.76,1.83,2,1.44,2.88-.49,1.08-3.19,1.4-7.08.66-.56-1.36-1.11-2.73-1.66-4.09h-4.56v5.24h0a1.18,1.18,0,0,0,.62.87l26.17,15a1.48,1.48,0,0,0,1.77-.1l1.1-1.28a.68.68,0,0,0,.15-.45h0v-5.24h-4.55v.44c-1.45-1.68-1.94-2.84-1.44-3.47.37-.48,1.44-.78,5.53-.1a61.41,61.41,0,0,1,16,5.05,1.48,1.48,0,0,0,1.77-.1l3-3.5a.7.7,0,0,0,.15-.43h0v-5.24Z"/><path class="cls-6" d="M255,237.24l1.1-1.28a.86.86,0,0,0-.27-1.25q-6.78-5.9-5.55-7.47c.37-.48,1.44-.78,5.53-.1a61.51,61.51,0,0,1,16,5.06,1.47,1.47,0,0,0,1.77-.11l3-3.5c.35-.41.14-1-.48-1.4l-15.45-8.89-15.89-9.14a1.48,1.48,0,0,0-1.77.1l-5.23,6.07c-.35.41-.14,1,.48,1.4h0c.76.75,1.83,2,1.44,2.87-.61,1.35-4.69,1.52-10.25-.1a1.47,1.47,0,0,0-1.77.1l-1.1,1.28c-.36.41-.15,1,.47,1.4l26.17,15.05A1.48,1.48,0,0,0,255,237.24Z"/><path class="cls-6" d="M240.87,206.93,237.5,205l-12.77-7.36a1,1,0,0,0-1.19.07l-.15.18a.51.51,0,0,0,0,.63h0l0,0,7.39,9.89a.47.47,0,0,0,.09.12h0a1.61,1.61,0,0,0,.4.32l5.24,3a1.49,1.49,0,0,0,1.78-.1l3-3.5C241.7,207.92,241.49,207.29,240.87,206.93Z"/></svg>