<svg id="no_hover" xmlns="http://www.w3.org/2000/svg" viewBox="0 0 500 500"><defs><style>.cls-1,.cls-2{fill:none;stroke-linecap:round;stroke-miterlimit:10;stroke-width:15px;}.cls-1{stroke:#00df9a;}.cls-2{stroke:#fff;}</style></defs><path class="cls-1" d="M355.91,178.67V55.22c-2.44-1.19-4.93-1.94-5.29-.87-9.13,27.2-18,54.24-27.17,81.44a2.72,2.72,0,0,1-5.15,0q-15.06-44.85-30.13-89.68a2.72,2.72,0,0,0-5.15,0L252.9,135.79a2.72,2.72,0,0,1-5.15,0q-15.08-44.85-30.13-89.68a2.72,2.72,0,0,0-5.15,0l-30.12,89.68a2.72,2.72,0,0,1-5.16,0Q163.5,95,149.79,54.2a1.39,1.39,0,0,0-.48-.69c-.93-.67-2.79.18-4.82,1.55l-.09,122.5H301.33"/><path class="cls-2" d="M356,219.67v37.52c-.08,5.4-1.59,54.1-38.74,83.15,0,0-26.84,20.89-61.17,22.5-2.46.11-4.41.12-5.74.12-2,0-5.13,0-9.1-.32-32.66-2.45-58.38-22.71-58.38-22.71-36.61-29-38.19-77.05-38.29-82.74V219.67"/><path class="cls-2" d="M178.46,404H321.85a111.7,111.7,0,0,1,111.7,111.7v40.21a56.47,56.47,0,0,1-56.47,56.47H123.23a56.47,56.47,0,0,1-56.47-56.47V515.67A111.7,111.7,0,0,1,178.46,404Z"/><path class="cls-2" d="M267.1,267.8a27.06,27.06,0,0,1,54.12,0"/><path class="cls-2" d="M277.37,308.47a27.06,27.06,0,0,1-54.12,0"/><path class="cls-2" d="M179.09,267.8a27.06,27.06,0,0,1,54.12,0"/></svg>