<svg xmlns="http://www.w3.org/2000/svg" viewBox="0 0 500 500"><defs><style>.cls-1{fill:#181a20;}.cls-2,.cls-3{fill:none;stroke-linecap:round;stroke-miterlimit:10;stroke-width:15px;}.cls-2{stroke:#00df9a;}.cls-3{stroke:#fff;}</style></defs><g id="Random"><rect class="cls-1" x="-1665.28" y="-36.66" width="2774.73" height="569.62"/></g><g id="no_hover"><path class="cls-2" d="M276.55,228.19c7.41,6.87,11.85,11.17,12.52,12.23a2.43,2.43,0,0,0,1.39,1.13,1.58,1.58,0,0,0,.9-.11c1.89-.75,3.84-1.36,5.77-2l8.47-2.1c2.83-.48,16.53-2.18,17-2.2l8.5-.08c1.7.05,14.14,1.19,17,1.55l8.4,1.85q8.63,2.49,17,5.77l8.52,4.12c.89.55,1.77,1.14,2.68,1.66a113.64,113.64,0,0,1,27.14,21.77,129.15,129.15,0,0,1,14.57,19.69,174.78,174.78,0,0,1,7.75,16.3c.92,2.84,1.85,5.69,2.78,8.53.71,2.8,1.43,5.61,2.15,8.41.25,1.67.48,3.34.72,5,.39,2.73.7,4.68.75,5a99.5,99.5,0,0,1,.16,24.84,83.78,83.78,0,0,1-3.81,16,4.7,4.7,0,0,1-4,3c-3.48.83-5.84-.61-8.49-2.54l-8.48-8.47-.43-.44c-2.56-2.81-5.23-5.5-8.05-8l-.45-.44a107,107,0,0,0-8-8.05l-.44-.43s-5.19-5.52-8.06-8a1.89,1.89,0,0,0-1.17-1.06,30.41,30.41,0,0,0-7.23-5.2,43.32,43.32,0,0,0-17-6,78.22,78.22,0,0,0-8.47-.5,48.18,48.18,0,0,0-17,3.56,33.14,33.14,0,0,0-8.41,4.52,52.67,52.67,0,0,0-7.93,6.51,33.25,33.25,0,0,0-4.87,6.14,31.13,31.13,0,0,0-5,8,40.27,40.27,0,0,0-3.43,17.46,25.62,25.62,0,0,0,.43,8.51,39.64,39.64,0,0,0,5.7,17,44.77,44.77,0,0,0,8.88,11.5c10.74,10.74,21.43,21.52,32.26,32.16,2.13,2.1,3.07,4.28,2.52,7.16a11.41,11.41,0,0,1-3.1,4c-2.73,1.67-5.88,2-8.89,2.71a8.7,8.7,0,0,0-1,0,112.36,112.36,0,0,1-40.55-1l-8.84-2.11-8.53-2.79-3-1.2L280.15,449l-8.42-4.49c-.39-.29-.77-.6-1.18-.86a116.78,116.78,0,0,1-23.11-18.63,150.09,150.09,0,0,1-12.58-15.56,156.74,156.74,0,0,1-9.21-17,167.21,167.21,0,0,1-5.84-17q-1-4.2-1.91-8.39c-.38-2.84-1.12-8.52-1.12-8.52l-.31-3.78s-.13-3.12-.2-4.68c0-2.83.07-5.67.1-8.5,0-.57.25-3.83.25-3.83l.29-3s.13-1.38.15-1.65q.74-4.26,1.46-8.52l2.1-8.42a13.67,13.67,0,0,1,.83-2.38c1.59-2.78.77-4.86-1.72-6.54a.59.59,0,0,0-.2-.07c-2.28-2.52-7.22-7.19-7.22-7.19l-.83-.84-7.65-7.64-.83-.84-7.65-7.65-.84-.83-7.64-7.65-.84-.83-7.64-7.65-.84-.84s-4.94-5.25-7.64-7.64c-.13-.43-.84-.84-.84-.84l-7.65-7.63-.84-.85L153,240.72l-.85-.84-7.64-7.65-.84-.83L136,223.76l-.84-.84s-4.92-5.26-7.64-7.63a1.22,1.22,0,0,0-.84-.85A86.07,86.07,0,0,0,119,206.8a1.21,1.21,0,0,0-.84-.84,86.18,86.18,0,0,0-7.65-7.64,1.14,1.14,0,0,0-.84-.84,87.44,87.44,0,0,0-7.63-7.65,1.2,1.2,0,0,0-.85-.84,87.43,87.43,0,0,0-7.64-7.64,1.16,1.16,0,0,0-.84-.84,88.84,88.84,0,0,0-7.64-7.64,1.19,1.19,0,0,0-.84-.84c-2.4-2.69-7.64-7.63-7.64-7.63l-.85-.85L68.15,155l-.34-.52-4.43-7.86s-3.47-11.14-4.16-17l.33-8.48a60.59,60.59,0,0,1,5.28-16.93l3.37-5.39c.81-1,2.7-3.25,2.85-3.43a51.45,51.45,0,0,1,14-11.26A58,58,0,0,1,97.89,79.7c1.4-.28,15.32-.65,15.4-.64A62.52,62.52,0,0,1,127.5,83c1.11.61,2.2,1.24,3.32,1.83,5.26,2.73,9.42,6.85,13.67,10.86,2.54,2.68,17,17,17,17l8.45,8.44,1.22,1.42"/><path class="cls-3" d="M188.21,140.49,259.61,205c37.14-27.41,64-51.38,77.45-66,7.74-8.39,15.19-18.12,18.91-31.8a57.21,57.21,0,0,0,2.19-14.56c0-19.26-17.88-49.28-49.28-49.28a49.52,49.52,0,0,0-49.27,49.27"/><path class="cls-3" d="M259.47,89.22c-2.84-28.1-25.06-48.77-49.28-49.2-18.32-.33-35.87,11-45.17,28.62"/><circle class="cls-3" cx="109.53" cy="128.3" r="15.57"/></g></svg>