<svg xmlns="http://www.w3.org/2000/svg" viewBox="0 0 500 500"><defs><style>.cls-1{fill:#181a20;}.cls-2,.cls-3{fill:none;stroke-linecap:round;stroke-miterlimit:10;stroke-width:15px;}.cls-2{stroke:#00df9a;}.cls-3{stroke:#fff;}</style></defs><g id="Random"><rect class="cls-1" x="-580.69" y="-36.66" width="2774.73" height="569.62"/></g><g id="no_hover"><path class="cls-2" d="M285.75,421.4c-34.06,0-44.83-.09-57.13,0C114,422,38.73,326,38.73,230.51c0-106,80.36-191.34,192.05-192.06,114.06-.73,194.6,69.62,194.6,192.06,0,6.64-1.31,67.45-47.51,110.17-64.2,59.36-159.2,32.09-178,24.85-25.72-9.9-46.38-26.19-46.38-26.19-5-3.9-8.88-7.44-11.58-10,0,0-5.37-4.65-17.74-19.27a6.67,6.67,0,0,1-1.78-4,6.38,6.38,0,0,1,1.09-3.59c3.32-5.46,5.95-11.33,9-16.94a11.17,11.17,0,0,0,1.19-3.1,12.1,12.1,0,0,0-.69-6.51c-1.2-3.64-2.45-7.45-5.9-10.65-3.86-3.57-8.61-4.67-12.93-5.67-3.21-.74-6.27-2.07-9.49-2.81a6.23,6.23,0,0,1-3.21-1.58,6.87,6.87,0,0,1-1.77-4.33c-2-19.83-1.47-26-.52-38.35a10.42,10.42,0,0,1,2.39-6.54c.79-.86,1.75-1.51,5.81-2.87,4.29-1.43,9.34-2.75,14.83-4.41a12.16,12.16,0,0,0,3.26-1.37c1.1-.68,2.89-2.08,4.84-5.89,1.62-3.16,3.46-6.77,3.18-11.44-.17-2.94-1.66-5.86-4.64-11.71-2.69-5.29-4-7.94-4.67-8.74-1.3-1.67-2.82-3.22-2.55-5.11a4.9,4.9,0,0,1,2.11-3c5.3-4,5.62-9.1,19.95-22,6.4-5.78,9.66-8.67,12.94-8.78,3.13-.1,3.87,1.3,13.52,5.61,10.1,4.52,12.83,4.56,14.39,4.47,3.95-.24,7-1.75,10-3.25a11.63,11.63,0,0,0,5.1-4.1,10,10,0,0,0,1.17-2.59c1.9-6.32,4.3-12.51,5.79-18.94a6.12,6.12,0,0,1,1.89-3.43,5.69,5.69,0,0,1,3-1.17c11.91-1.39,30.42-1.19,34.05-1.19a19.41,19.41,0,0,1,8,1.54,13,13,0,0,1,3.76,2.27c1,.94,2.18,2.36,4.26,9.66.55,2,1.46,5.32,2.88,10.1A12.9,12.9,0,0,0,265.7,123c.57,1,2,2.95,6.52,5.06,3.49,1.62,7.11,3.3,11.77,2.88,3.49-.32,5.89-1.67,10.36-4.17,3.42-1.92,7-3.5,10.32-5.64a6.33,6.33,0,0,1,3.77-1.24,6.48,6.48,0,0,1,3.89,1.73c10.21,8.6,15,14.29,21.44,19.69,0,0,7.59,6.36,8.63,11.73a9.06,9.06,0,0,1,.12,1.11,8.41,8.41,0,0,1-.09,1.48c-.62,3.83-5.61,12.13-5.61,12.13-1.61,2.69-4.63,7.72-4.39,14,.16,4.12,1.68,7.21,3.26,10.43a11.54,11.54,0,0,0,4,5,9.77,9.77,0,0,0,2.74,1.21c6.14,1.8,12.19,3.91,18.37,5.55a6.91,6.91,0,0,1,3.54,1.91,7.36,7.36,0,0,1,1.71,4.51c1.67,20,1.11,29.09,1.11,29.09-.69,11-1,12.77-2.68,14.62-2.21,2.43-3.95,1.93-13.35,5.44-7.34,2.74-11.07,4.17-13.79,7.22a24.62,24.62,0,0,0-4.82,9.42,11.67,11.67,0,0,0-.65,6.33,9.89,9.89,0,0,0,1.11,2.83c3.09,5.6,5.69,11.48,9.05,16.93a6.69,6.69,0,0,1,1.2,4,6.55,6.55,0,0,1-1.66,3.7,230,230,0,0,1-20.66,22.21h0c-6.79,6.15-8.57,7.26-10.69,7.78a8.12,8.12,0,0,1-.88.18s-.3.05-.61.08c-5,.51-9.56-2.49-12.73-5.43"/><path class="cls-2" d="M403.3,381.24l54,32.78a8,8,0,0,1-4,15c-1.4,0-2.22.18-7.75,0"/><path class="cls-2" d="M403.3,461.55l54-32.77a8,8,0,0,0-4-15c-1.4,0-2.22-.17-7.75,0"/><circle class="cls-3" cx="232.9" cy="230.5" r="51.66"/><path class="cls-2" d="M285.75,421.4H461.27"/></g></svg>