<svg id="no_hover" xmlns="http://www.w3.org/2000/svg" viewBox="0 0 500 500"><defs><style>.cls-1,.cls-2{fill:none;stroke-linecap:round;stroke-miterlimit:10;stroke-width:15px;}.cls-1{stroke:#00df9a;}.cls-2{stroke:#fff;}</style></defs><path class="cls-1" d="M268.78,30A121.89,121.89,0,0,0,216,47.65c-43.37,26.67-73.83,64.63-95.08,110.17-9.09,19.49-11.6,40.45-6,61.78,3.41,22.52,14,42.15,26.24,60.63,6.55,9.86,10.54,19.89,11.64,30.44a66.8,66.8,0,0,1-1.65,21.65l0,.07h0s-9.41,16.68-12.26,21.07c-31.33,48.16-45.65,67.76-45.65,67.76-4.91,7.12-.31,13.85,3,17a27.48,27.48,0,0,0,5.33,4.26l20,12.07s16.5,9.35,25.71-6.5c14.08-24.22,27.81-48.65,42.32-72.61,12.91-21.34,31.8-30.36,57.14-27.35,23.52,2.79,47.3,4.37,70.53-3,22.74-5,40.86-17.66,55-35.52,23.1-29.08,39.09-61.92,49-97.74C453.6,94.49,349,22.54,268.78,30Z"/><circle class="cls-2" cx="222.96" cy="183.08" r="36.18"/></svg>