<svg id="no_hover" xmlns="http://www.w3.org/2000/svg" xmlns:xlink="http://www.w3.org/1999/xlink" viewBox="0 0 500 500"><defs><style>.cls-1{fill:url(#New_Pattern);}.cls-2{fill:none;}.cls-3{fill:#de1651;}.cls-4{fill:#2e5644;}.cls-5{fill:#409873;}.cls-6{fill:#52c18e;}.cls-7{fill:#6cd3a0;}.cls-8{fill:#234938;}.cls-9{fill:#12261d;}.cls-10{fill:#161616;}.cls-11{fill:#282828;}.cls-12{fill:#474747;}.cls-13{fill:#3e8566;}.cls-14{fill:#af0e40;}.cls-15{fill:#fff;}.cls-16{mask:url(#mask);}</style><pattern id="New_Pattern" data-name="New Pattern" width="61.44" height="39.9" patternTransform="matrix(1.3, 0.75, 0, -1.3, -31.12, 389.28)" patternUnits="userSpaceOnUse" viewBox="0 0 61.44 39.9"><rect class="cls-2" width="61.44" height="39.9"/><path class="cls-3" d="M44,38.9l.59-2.21a1.33,1.33,0,0,0-.7-1.54q-8.53-4.74-7.93-7.4c.18-.81,1.08-1.7,5.2-2.68a45,45,0,0,1,17-.62,1.33,1.33,0,0,0,1.64-.95l1.61-6.06a1.34,1.34,0,0,0-1-1.64L42.62,11.06,24.29,6.19a1.34,1.34,0,0,0-1.64.95L19.86,17.63a1.34,1.34,0,0,0,.95,1.64h0c1,.65,2.46,1.84,2.4,3.17-.1,2.08-3.91,4.17-9.76,4.58a1.33,1.33,0,0,0-1.64.95l-.59,2.21a1.33,1.33,0,0,0,.95,1.64l30.18,8A1.34,1.34,0,0,0,44,38.9Z"/><path class="cls-3" d="M19.83,5,15.94,4,1.21,0A.9.9,0,0,0,.11.66L0,1a.9.9,0,0,0,.22.85h0l0,0,10.54,9.79.13.12h0a1.35,1.35,0,0,0,.48.24l6.06,1.61a1.33,1.33,0,0,0,1.64-1l1.62-6A1.34,1.34,0,0,0,19.83,5Z"/></pattern><mask id="mask" x="0" y="13.69" width="182.26" height="267.55" maskUnits="userSpaceOnUse"><polygon class="cls-1" points="182.26 197.07 120.42 161.37 120.42 245.54 182.26 281.24 182.26 197.07"/></mask></defs><path class="cls-4" d="M389.41,389.41q0-70.07.1-140.14L250,329.91q0,69.91.08,139.83Z"/><path class="cls-5" d="M250,329.91,110.72,249.28q0,70,0,140l139.32,80.5Q250,399.83,250,329.91Z"/><path class="cls-5" d="M250,329.91q0-80.46,0-160.92L110.72,249.28Z"/><path class="cls-6" d="M389.51,249.27l60.6-77.11L310.72,91.82,250,169Z"/><path class="cls-6" d="M168.76,328.47,250,329.91,110.72,249.28l-79,0Z"/><path class="cls-6" d="M110.72,249.28l-79-45.36,139.42-80.7L250,169Z"/><path class="cls-7" d="M389.51,249.27,250,329.91q0-80.46,0-160.92Z"/><path class="cls-3" d="M208.13,394.09v-3a3.63,3.63,0,0,0-1.42-2.56q-12.52-10.35-12.66-14c0-1.12.81-2.08,5.73-1.89,4.42.16,11.47,1.23,21.45,5.79,1,.56,1.77.22,1.77-.76l0-8.29a3.7,3.7,0,0,0-1.78-2.8l-24.37-14-25.06-14.42c-1-.56-1.77-.22-1.77.76l0,14.35a3.68,3.68,0,0,0,1.78,2.8h0c1.49,1.36,3.77,3.68,4.15,5.63.58,3-3.56,4.61-10.89,2.89-1-.56-1.78-.23-1.77.76v3a3.7,3.7,0,0,0,1.78,2.8l41.27,23.74C207.34,395.41,208.13,395.07,208.13,394.09Z"/><path class="cls-3" d="M165.67,334.56l-5.33-3.06-20.15-11.61c-.65-.38-1.18-.15-1.18.5v.42a2.21,2.21,0,0,0,.58,1.34v0c0,.05.07.08.08.08l16.8,18.58a2.2,2.2,0,0,0,.2.23l0,0h0a3.69,3.69,0,0,0,.7.55l8.28,4.77c1,.56,1.77.23,1.77-.76v-8.28A3.68,3.68,0,0,0,165.67,334.56Z"/><path class="cls-3" d="M347.37,367.63v-3.07c0-.88-.63-1.24-1.45-.93q-12.75,4.17-12.89.59c0-1.1.81-3.06,5.83-8.67a126.7,126.7,0,0,1,21.85-19.33,3.76,3.76,0,0,0,1.8-2.85l0-8.42c0-1-.81-1.34-1.81-.76l-24.82,14.38-25.53,14.79a3.72,3.72,0,0,0-1.8,2.85l0,14.59c0,1,.81,1.33,1.81.76l0,0c1.52-.37,3.84-.68,4.22.85.6,2.4-3.62,8.88-11.09,15.76a3.75,3.75,0,0,0-1.8,2.85v3.08c0,1,.82,1.33,1.81.76l42-24.35A3.75,3.75,0,0,0,347.37,367.63Z"/><path class="cls-3" d="M304.12,356.94l-5.42,3.14L278.17,372a2.49,2.49,0,0,0-1.2,1.9v.42a.6.6,0,0,0,.59.69h.09l17.11-.83H295a1.9,1.9,0,0,0,.71-.27l8.44-4.88a3.74,3.74,0,0,0,1.8-2.85V357.7C305.93,356.7,305.12,356.36,304.12,356.94Z"/><path class="cls-6" d="M468.21,294.94l-78.7-45.67L250,329.91l74.64,47.71Z"/><path class="cls-6" d="M243.79,326.33,116.86,252.81,96.13,264.06l91.32,59.6,51,4.08Z"/><path class="cls-8" d="M199.83,76.91v40.15c0,3.75,2,8.2,5.09,11.69,4.66,7.1,21,20,41.57,32.8-.09,2.1-.14,4.29-.14,6.54a158.58,158.58,0,0,0,1,17.51c-2,10.45-4.45,25.48-6.09,43.72-2,22.44-6.68,74.39,6.06,78.18,4.44,1.33,9.48-3.66,13.1-7.24,13.13-13,13.63-31.68,13.63-52,0-19.08-2.37-37.46-6.08-50.74q.42-7,.83-14.06c7.18,9.77,18.36,15,29.1,13.36a28.43,28.43,0,0,0,15.59-8.16l2-4.85V158L199.83,91.26Z"/><path class="cls-9" d="M301.56,140.08v25.28L315.43,158V132.73Z"/><path class="cls-10" d="M247.88,69.79,276.49,86.3a17,17,0,0,1,1.17,1.76c2.65,4.67.75,7.6,1.55,14,.53,4.3,2.11,8.67,2.73,8.93s.37-3.33,1.09-11.21c0-.14,0-.28.05-.42h0a10.67,10.67,0,0,1,2.16-5.13A35.36,35.36,0,0,1,289,88.35a13.72,13.72,0,0,0,.15-3,12.07,12.07,0,0,1-.38-3h0a16,16,0,0,0-3.28-6.7c-.45-.74-.86-1.34-1.17-1.75L259,61.73l-1.11.15c-4.36.88-7,3.44-10.92,7.8A.91.91,0,0,1,247.88,69.79Z"/><path d="M286.34,92.65c.2-.28.61-.3,1.06-.05l1,.56c.28-1.82.52-3.48.67-4.81a35.36,35.36,0,0,0-3.79,5.83C285.61,93.67,286,93.18,286.34,92.65Z"/><path d="M242.32,77.57c.29.19,1.52-2,2.54-5.16C243.13,75,242.06,77.4,242.32,77.57Z"/><path class="cls-10" d="M307.72,89l-11.91-6.43-1.05,0A37.92,37.92,0,0,0,289,88.35c-.15,1.33-.39,3-.67,4.81l5.48,3.17c5.55,3.2,10,10.29,10.09,15.85a.62.62,0,0,1,0,.13l-2.37,27.77,13.87-7.35q1.19-13.89,2.38-27.78v-.13C317.78,99.26,313.27,92.18,307.72,89Z"/><polygon points="301.56 140.08 301.56 140.08 301.56 140.08 301.56 140.08"/><path d="M283.08,99.32h0v0Z"/><path class="cls-10" d="M209.07,47.38l27.79,16A2.54,2.54,0,0,1,238,65.18c.17,2,.41,4.2.75,6.5.5,3.38,1.13,6.63,1.84,9.71.33,1.41,2.07,2.36,2.29,1.24.34-1.73.76-3.51,1.27-5.31a59.74,59.74,0,0,1,2.59-7.38h0a24.71,24.71,0,0,0-1.91,2.47c-1,3.15-2.25,5.35-2.54,5.16s.81-2.62,2.54-5.16c1.31-4,2.27-9.63.44-13.76a6.52,6.52,0,0,0-1.17-1.75L213.26,39.37a6.94,6.94,0,0,0-3.52,1.84c-2.66,2.64-1.9,6.53-1.83,6.87l.62,6.44a59.39,59.39,0,0,0-.62-6.44C207.8,47.29,208.35,47,209.07,47.38Z"/><path class="cls-10" d="M192.26,37.68l5.19,3a2.47,2.47,0,0,1,1.17,1.77,60.9,60.9,0,0,0,.79,6.51A82.42,82.42,0,0,0,205,67.13c.53,1.23,1.92,1.84,2.16.94a39.48,39.48,0,0,0,1.28-7.5c-.18-.12-3-6.11-1.75-17,.17-1.44.61-5.39-1.57-7.88a7,7,0,0,0-3.16-2l-5.21-1.82c-5.54-3.2-10-1.33-10.08,4.17v.15A9.72,9.72,0,0,1,192.26,37.68Z"/><path d="M208.54,54.8c0,2.94,0,4.46-.06,5.18.07-1.12.11-2.31.1-3.56C208.58,55.87,208.56,55.33,208.54,54.8Z"/><path class="cls-11" d="M208.53,54.52a2.53,2.53,0,0,1,0,.28v-.28Z"/><path class="cls-11" d="M208.48,60c0,.2,0,.39,0,.59h0A2.6,2.6,0,0,0,208.48,60Z"/><path class="cls-11" d="M246.77,69.94l.23-.26A.53.53,0,0,0,246.77,69.94Z"/><path class="cls-11" d="M285.25,94.18a10.67,10.67,0,0,0-2.16,5.13,35.47,35.47,0,0,1,2.16-5.13Z"/><path class="cls-12" d="M293.85,96.33l-5.48-3.17c-1.21,7.76-3.36,18.39-4.22,18.35-.41,0-.84-2.46-1.07-12.18,0,.14,0,.28-.05.42-.72,7.88-.49,11.46-1.09,11.21s-2.2-4.63-2.73-8.93c-.8-6.37,1.1-9.3-1.55-14a17,17,0,0,0-1.17-1.76L247.88,69.79a.91.91,0,0,0-.88-.11l-.23.26h0a59.74,59.74,0,0,0-2.59,7.38c-.51,1.8-.93,3.58-1.27,5.31-.21,1.12-2,.17-2.29-1.24-.71-3.08-1.34-6.33-1.84-9.71-.34-2.3-.58-4.47-.75-6.5a2.54,2.54,0,0,0-1.17-1.76l-27.79-16c-.72-.42-1.27-.09-1.16.7a59.39,59.39,0,0,1,.62,6.44v.28c0,.53,0,1.07,0,1.62,0,1.25,0,2.44-.1,3.56a2.6,2.6,0,0,1,0,.59h0a39.48,39.48,0,0,1-1.28,7.5c-.24.9-1.63.29-2.16-.94A82.42,82.42,0,0,1,199.41,49a60.9,60.9,0,0,1-.79-6.51,2.47,2.47,0,0,0-1.17-1.77l-5.19-3a9.71,9.71,0,0,0-5.58-1.54c-2.7.24-4.48,2.26-4.51,5.71a1.28,1.28,0,0,0,0,.19q1.89,15.65,3.77,31.3l115.61,66.74h0l2.37-27.77a.62.62,0,0,0,0-.13C303.9,106.62,299.4,99.53,293.85,96.33Z"/><path class="cls-11" d="M286.34,92.65c-.36.53-.73,1-1.09,1.53h0a35.47,35.47,0,0,0-2.16,5.13v0c.23,9.72.66,12.17,1.07,12.18.86,0,3-10.59,4.22-18.35l-1-.56C287,92.35,286.54,92.37,286.34,92.65Z"/><path class="cls-13" d="M186,84.27h0v40.15c0,3.75,2.06,8.2,5.09,11.69,4.66,7.1,21,20,41.58,32.8-.1,2.1-.14,4.28-.14,6.54a156.3,156.3,0,0,0,1,17.51c-3.72,9-6.09,24.64-6.09,43.71,0,33.55,7.34,65,16.4,70.21s16.39-17.73,16.39-51.28c0-19.07-2.37-37.46-6.08-50.74a129.79,129.79,0,0,0,1-16.39c0-2.25,0-4.49-.15-6.7,20.62,11,36.92,16.92,41.58,15.21,3,0,5.09-2.07,5.09-5.82v-25.8L186,98.61Z"/><polygon class="cls-8" points="185.95 73.34 185.95 84.27 185.95 98.61 301.56 165.36 301.56 151.01 301.56 140.08 185.95 73.34"/><path class="cls-14" d="M303.93,112.31c2,6.77,1.31,9.13,3.13,10.24s4.71.1,6.3-1c2.13-1.54,2.8-3.76,3.61-6.72a28.34,28.34,0,0,0,.84-10,20.2,20.2,0,0,0-.73-5.28c-2.05-7.34-7.75-11.32-9.81-12.72-3.1-2.1-6.64-4.5-11.46-4.28-8.14.38-12.95,7.93-13.55,8.9.67-.25,5.56-2.15,6.78-6.77,1.16-4.42-1.85-8.24-3.11-9.83-3.28-4.17-6.11-3.54-15.76-8.31-8.4-4.14-9.56-6.22-13.14-5.88-5.38.5-9.16,5.81-11.14,9.25,2-5.58,1.86-11.1-.84-13.56a19.12,19.12,0,0,0-5.25-2.91,23.05,23.05,0,0,0-3.6-1l-10,4.88C228.11,75,233,83.75,239.69,86.4c4.33,1.72,5.55-.65,12.19,1,7.33,1.88,18,7.87,23.65,18,1.85,3.29,3.23,7.1,6.39,7.61,1.76.29,2.61-.69,6.33-2.46,4-1.93,10.71-5.11,13.78-2.82C302.76,108.29,303.16,109.64,303.93,112.31Z"/><path class="cls-3" d="M293.85,96.33,287.4,92.6c-.45-.25-.86-.23-1.06.05-1.46,2.09-3,3.76-3.31,7.1-.72,7.88-.49,11.46-1.09,11.21s-2.2-4.63-2.73-8.93c-.8-6.37,1.1-9.3-1.55-14a17,17,0,0,0-1.17-1.76L247.88,69.79c-.5-.29-.94-.23-1.11.15a36.73,36.73,0,0,0-2.59,7.38c-.18.67-.39,1.38-.69,2.65-.22.94-.41,1.83-.58,2.66a1.41,1.41,0,0,1-1.58-.13c-.41-.35-.65-.94-1.08-2.75-.51-2.16-.77-3.79-.81-4.07-.59-3.74-.58-3.14-.66-4,0,0-.61-4.92-.75-6.5a2.21,2.21,0,0,0-.43-1.05,2.9,2.9,0,0,0-.74-.71c-.72-.46-4.92-2.89-10.67-6.15,2.41,27.8,5.37,35.47,7.73,37,1.79,1.15,2.4-1.8,7.46-2.63A17.5,17.5,0,0,1,255.67,95c5.6,4.34,5.82,9.21,11.67,13.46,4.54,3.3,5.49,1.15,10.18,4.28,7.36,4.92,9.71,13.37,12.9,14.27,5.44,1.55,1.55-22.18,7.5-20.75,2.06.49,4.52,3.8,6,6a.62.62,0,0,0,0-.13C303.9,106.62,299.4,99.53,293.85,96.33Z"/><polygon class="cls-15" points="255.85 316.94 255.85 232.77 379.53 161.37 379.53 245.54 255.85 316.94"/><path class="cls-3" d="M336,240V238c0-.59-.42-.84-1-.63q-8.61,2.82-8.7.4c0-.74.55-2.07,3.94-5.86a85.67,85.67,0,0,1,14.75-13,2.54,2.54,0,0,0,1.22-1.92v-5.69c0-.68-.55-.9-1.23-.51l-16.76,9.71-17.24,10a2.5,2.5,0,0,0-1.21,1.93l0,9.85c0,.67.54.9,1.22.51h0c1-.25,2.59-.46,2.84.58.41,1.62-2.44,6-7.49,10.64a2.53,2.53,0,0,0-1.21,1.92v2.08c0,.67.55.9,1.22.51L334.74,242A2.54,2.54,0,0,0,336,240Z"/><path class="cls-3" d="M306.75,232.82l-3.66,2.12-13.86,8a1.69,1.69,0,0,0-.81,1.29v.28c0,.3.16.46.39.47h.06l11.56-.56h.15a1.41,1.41,0,0,0,.49-.18l5.69-3.3A2.54,2.54,0,0,0,308,239v-5.69C308,232.66,307.42,232.43,306.75,232.82Z"/><polygon class="cls-15" points="120.42 161.37 120.42 245.54 244.09 316.94 244.09 232.77 120.42 161.37"/><path class="cls-3" d="M203.57,273.25a.65.65,0,0,0-.32,1.22l33,19.07a.65.65,0,1,0,.65-1.12l-33-19.08A.66.66,0,0,0,203.57,273.25Z"/><path class="cls-3" d="M203.57,256.07a.66.66,0,0,0-.56.32.65.65,0,0,0,.24.89l33,19.08a.65.65,0,0,0,.65-1.13l-33-19.07A.66.66,0,0,0,203.57,256.07Z"/><path class="cls-3" d="M203.57,238.89a.64.64,0,0,0-.56.32.65.65,0,0,0,.24.89l33,19.07a.65.65,0,1,0,.65-1.12L203.9,239A.64.64,0,0,0,203.57,238.89Z"/><polygon class="cls-3" points="182.26 197.07 120.42 161.37 120.42 245.54 182.26 281.24 182.26 197.07"/><g class="cls-16"><polygon class="cls-15" points="182.26 197.07 120.42 161.37 120.42 245.54 182.26 281.24 182.26 197.07"/></g><polygon class="cls-3" points="196.85 251.27 196.85 254.41 194.14 254.41 191.42 251.27 191.42 248.13 194.14 248.13 196.85 251.27"/><polygon class="cls-3" points="196.85 269.39 196.85 272.53 194.14 272.53 191.42 269.39 191.42 266.26 194.14 266.26 196.85 269.39"/><polygon class="cls-3" points="196.85 234.09 196.85 237.22 194.14 237.22 191.42 234.09 191.42 230.95 194.14 230.95 196.85 234.09"/><path class="cls-15" d="M227.67,236.62l-15.15-8.74"/><path class="cls-3" d="M212.52,226.9a1,1,0,0,0-.49,1.82l15.16,8.75a1,1,0,0,0,1.33-.36,1,1,0,0,0-.36-1.33L213,227A.94.94,0,0,0,212.52,226.9Z"/></svg>