<svg id="Layer_2" data-name="Layer 2" xmlns="http://www.w3.org/2000/svg" viewBox="0 0 500 500"><defs><style>.cls-1{fill:#409873;}.cls-2{fill:#00df9a;}.cls-3,.cls-4{fill:#fff;}.cls-4{opacity:0;}.cls-5{fill:#de1651;}</style></defs><rect class="cls-1" x="211.25" y="276.01" width="29" height="55"/><rect class="cls-2" x="137.25" y="328.01" width="177" height="20" rx="4.26"/><rect class="cls-2" x="78.25" y="115.01" width="295" height="177" rx="13.32"/><rect class="cls-3" x="88.25" y="128.01" width="273" height="151" rx="13.32"/><rect class="cls-2" x="58.25" y="182.01" width="73" height="122" rx="10.65"/><rect class="cls-3" x="65.25" y="189.01" width="58" height="107" rx="8.52"/><rect class="cls-4" x="26.25" y="190.01" width="32" height="116"/><path class="cls-5" d="M271.72,234v-5.35a3.14,3.14,0,0,0-2.52-3.07q-22.12-5.52-22.38-11.89c-.07-2,1.42-4.5,10.14-9.2a105.36,105.36,0,0,1,37.92-11.66,3.13,3.13,0,0,0,3.13-3.14L298,175a3.14,3.14,0,0,0-3.14-3.13l-43.1.09-44.32.08a3.15,3.15,0,0,0-3.13,3.15l.05,25.36a3.15,3.15,0,0,0,3.15,3.13h0c2.64.88,6.66,2.66,7.33,5.71,1,4.75-6.29,11.78-19.26,16.23a3.15,3.15,0,0,0-3.13,3.15v5.34a3.14,3.14,0,0,0,3.14,3.14l73-.15A3.14,3.14,0,0,0,271.72,234Z"/><path class="cls-5" d="M196.63,172l-9.41,0-35.64,0a2.1,2.1,0,0,0-2.09,2.1v.73a2.1,2.1,0,0,0,1,1.79l0,0,.13.07,29.71,15.71.36.19h0A3,3,0,0,0,182,193l14.64,0a3.13,3.13,0,0,0,3.13-3.14l0-14.64A3.13,3.13,0,0,0,196.63,172Z"/><path class="cls-5" d="M104.74,250.59v-1.22a.74.74,0,0,0-.58-.71q-5.07-1.26-5.13-2.72c0-.45.33-1,2.32-2.11a24.35,24.35,0,0,1,8.69-2.67.72.72,0,0,0,.72-.72v-3.35a.72.72,0,0,0-.72-.72l-9.87,0-10.15,0a.72.72,0,0,0-.72.72v5.81a.71.71,0,0,0,.72.71h0c.6.21,1.53.61,1.68,1.31.24,1.09-1.44,2.7-4.41,3.72a.72.72,0,0,0-.72.72v1.23a.72.72,0,0,0,.72.71l16.72,0A.72.72,0,0,0,104.74,250.59Z"/><path class="cls-5" d="M87.54,236.41H77.22a.48.48,0,0,0-.48.48v.17a.47.47,0,0,0,.23.41h0l0,0,6.8,3.6.09,0h0a.72.72,0,0,0,.29.06h3.35a.72.72,0,0,0,.72-.72v-3.35A.72.72,0,0,0,87.54,236.41Z"/><rect class="cls-2" x="222.25" y="219.01" width="242" height="145" rx="10.65"/><rect class="cls-3" x="234.25" y="232.01" width="218" height="119" rx="10.65"/><path class="cls-1" d="M457.2,366.48a4.11,4.11,0,0,0-3.76-2.47H233.23a4.11,4.11,0,0,0-2.63.95h0v0a2.65,2.65,0,0,0-.34.33L212.83,382h.6c.25,1.67,3.6,3,7.71,3H465.52c4.11,0,7.47-1.33,7.71-3h.61Z"/><path class="cls-5" d="M374.23,312v-3.57a2.1,2.1,0,0,0-1.68-2q-14.76-3.69-14.92-7.93c-.05-1.3.94-3,6.75-6.14a70.21,70.21,0,0,1,25.29-7.77,2.1,2.1,0,0,0,2.09-2.1l0-9.76a2.1,2.1,0,0,0-2.1-2.09l-28.74.06-29.54.06a2.09,2.09,0,0,0-2.09,2.09l0,16.91a2.1,2.1,0,0,0,2.1,2.09h0c1.76.58,4.44,1.77,4.88,3.81.69,3.17-4.19,7.85-12.84,10.82a2.08,2.08,0,0,0-2.08,2.1v3.56a2.1,2.1,0,0,0,2.1,2.09l48.66-.1A2.08,2.08,0,0,0,374.23,312Z"/><path class="cls-5" d="M324.17,270.68h-6.28l-23.76,0a1.4,1.4,0,0,0-1.39,1.4v.49a1.4,1.4,0,0,0,.68,1.2h0l.08,0,19.81,10.48.25.13h0a2.13,2.13,0,0,0,.83.18l9.77,0a2.1,2.1,0,0,0,2.09-2.09l0-9.76A2.09,2.09,0,0,0,324.17,270.68Z"/></svg>