<svg id="hover" xmlns="http://www.w3.org/2000/svg" viewBox="0 0 500 500"><defs><style>.cls-1,.cls-4{fill:#fff;}.cls-1{opacity:0;}.cls-2{fill:#409873;}.cls-3{fill:#00df9a;}.cls-5{fill:#4e6f93;}.cls-6{fill:#de1651;}</style></defs><rect class="cls-1" x="278.59" y="98.33" width="37" height="58.18"/><path class="cls-2" d="M445.15,257.85q0-7.61,0-15.23L204,381.88,54.85,295.79V311q74.55,43,149.12,86.05Z"/><path class="cls-3" d="M445.16,242.62l-149.1-86.09L54.85,295.79,204,381.88Z"/><path class="cls-4" d="M203.85,366.55,419,242.55,296.05,171.73,81.14,295.81Z"/><path class="cls-3" d="M195.21,285.63l-43.85-25.3L107.5,285.65,151.36,311Z"/><path class="cls-2" d="M195.19,290.75l0-5.12L151.36,311,107.5,285.65v5.06L151.36,316Z"/><path class="cls-3" d="M256.61,321.08l-43.85-25.31L168.9,321.09l43.86,25.32Z"/><path class="cls-2" d="M256.59,326.2l0-5.12-43.85,25.33L168.9,321.09v5.07l43.86,25.32Z"/><path class="cls-3" d="M322.38,283.12,217.12,222.37l-43.86,25.31,105.26,60.75Z"/><path class="cls-2" d="M322.38,288.18v-5.06l-43.86,25.31L173.26,247.68v5.07L278.53,313.5Z"/><path class="cls-3" d="M366.24,257.86,261,197,239.05,209.7l105.24,60.95Z"/><path class="cls-2" d="M366.24,262.92v-5.06l-21.95,12.79L239.05,209.7c0,1.66,0,3.32,0,5Q289.8,244,340.51,273.38l3.8,2.2Z"/><path class="cls-3" d="M396.87,240.16,291.64,179.41,278.48,187l105.26,60.84Z"/><path class="cls-2" d="M396.87,245.22v-5.06l-13.13,7.69L278.48,187v5.06Q329.3,221.2,380,250.58l3.8,2.21Z"/><path class="cls-5" d="M272.16,268.58v2L260.62,264l-15.89-9.14a1.47,1.47,0,0,0-1.77.11l-1.15,1.33h-2.42l2-2.27a.6.6,0,0,0,.15-.42h0v-5.24H237v2l-8.19-4.72c-1.12-2.23-2.25-4.45-3.38-6.68l-2.12-.37v5.25h0a.62.62,0,0,0,.11.35h0s0,0,0,0l7.39,9.89a.47.47,0,0,0,.09.12h0a1.61,1.61,0,0,0,.4.32l5.24,3a1.78,1.78,0,0,0,1,.24v3.67h0a1.14,1.14,0,0,0,.62.89h0c.76.75,1.83,2,1.44,2.88-.49,1.07-3.19,1.39-7.08.65-.56-1.36-1.11-2.72-1.66-4.09h-4.56v5.24h0a1.17,1.17,0,0,0,.62.87L253.19,283a1.48,1.48,0,0,0,1.77-.1l1.1-1.28a.65.65,0,0,0,.15-.44h0v-5.24h-4.55v.43c-1.45-1.68-1.94-2.84-1.44-3.47.37-.48,1.44-.78,5.53-.1a61.91,61.91,0,0,1,16,5.06,1.47,1.47,0,0,0,1.77-.11l3-3.5a.66.66,0,0,0,.15-.42h0v-5.25Z"/><path class="cls-6" d="M255,277.76l1.1-1.28a.86.86,0,0,0-.27-1.25q-6.78-5.89-5.55-7.47c.37-.48,1.44-.78,5.53-.1a61.91,61.91,0,0,1,16,5.06,1.48,1.48,0,0,0,1.77-.1l3-3.51c.35-.41.14-1-.48-1.39l-15.45-8.89-15.89-9.14a1.46,1.46,0,0,0-1.77.1l-5.23,6.06c-.35.42-.14,1,.48,1.4h0c.76.75,1.83,2,1.44,2.88-.61,1.35-4.69,1.51-10.25-.11a1.46,1.46,0,0,0-1.77.11l-1.1,1.27c-.36.42-.15,1,.47,1.4l26.17,15.05A1.46,1.46,0,0,0,255,277.76Z"/><path class="cls-6" d="M240.87,247.46l-3.37-2-12.77-7.35a1,1,0,0,0-1.19.06l-.15.18a.52.52,0,0,0,0,.64h0s0,0,0,0q3.69,4.95,7.39,9.89a.38.38,0,0,0,.09.13h0a1.61,1.61,0,0,0,.4.32l5.24,3a1.49,1.49,0,0,0,1.78-.11l3-3.5C241.7,248.44,241.49,247.81,240.87,247.46Z"/><rect class="cls-1" x="278.48" y="98.36" width="37" height="58.18"/></svg>