<svg id="no_hover" xmlns="http://www.w3.org/2000/svg" viewBox="0 0 500 500"><defs><style>.cls-1{fill:#409873;}.cls-2{fill:#00df9a;}</style></defs><rect class="cls-1" x="211.25" y="279.01" width="29.91" height="52"/><path class="cls-2" d="M310.92,328H141.53a4.27,4.27,0,0,0-4.28,4.26v11.48a4.27,4.27,0,0,0,4.28,4.26H310.92a4.27,4.27,0,0,0,4.28-4.26V332.27A4.27,4.27,0,0,0,310.92,328Z"/><path class="cls-2" d="M359.93,115H91.57a13.32,13.32,0,0,0-13.32,13.32V278.69A13.32,13.32,0,0,0,91.57,292H359.93a13.32,13.32,0,0,0,13.32-13.32V128.33A13.32,13.32,0,0,0,359.93,115Zm2.32,150.68A13.32,13.32,0,0,1,348.93,279H102.57a13.32,13.32,0,0,1-13.32-13.32V141.33A13.32,13.32,0,0,1,102.57,128H348.93a13.32,13.32,0,0,1,13.32,13.32Z"/><path class="cls-1" d="M456.42,365.31a3.51,3.51,0,0,0-.34-.33l0,0h0a4.08,4.08,0,0,0-2.62-.95H233.23a4.13,4.13,0,0,0-2.63.95h0v0a2.65,2.65,0,0,0-.34.33L212.83,382h.6c.25,1.67,3.6,3,7.71,3H465.52c4.11,0,7.47-1.33,7.71-3h.61Z"/><path class="cls-2" d="M455.42,356.94A6.43,6.43,0,0,0,450,354H236.9a6.39,6.39,0,0,0-4.66,2l-.2.15h0l0,0a3.34,3.34,0,0,0-.33.32L214.49,373h-1.06c.25,1.67,3.6,3,7.71,3H465.52c4.11,0,7.47-1.33,7.71-3h-1.05Z"/><rect class="cls-2" x="27.25" y="371.01" width="132" height="14" rx="5.9"/><path class="cls-1" d="M32.15,371H74.21a4,4,0,0,1,4,4V381a4,4,0,0,1-4,4H32.15a5.9,5.9,0,0,1-5.9-5.9v-2.2A5.9,5.9,0,0,1,32.15,371Z"/></svg>