<svg id="hover" xmlns="http://www.w3.org/2000/svg" xmlns:xlink="http://www.w3.org/1999/xlink" viewBox="0 0 500 500"><defs><style>.cls-1,.cls-11{fill:none;}.cls-2{fill:#de1651;}.cls-3{fill:#52c18e;}.cls-4{fill:#2e5644;}.cls-5{fill:#409873;}.cls-6,.cls-9{fill:#fff;}.cls-7{fill:#44966d;}.cls-8{fill:#6cd3a0;}.cls-9{opacity:0;}.cls-10{opacity:0.1;fill:url(#New_Pattern_2);}.cls-11{stroke:#de1651;stroke-miterlimit:10;}.cls-12{fill:#68dd9f;}.cls-13{fill:#fefefe;}.cls-14,.cls-16{fill:#1ea55e;}.cls-15{fill:#6c9;}.cls-16{opacity:0.45;}.cls-17{fill:#28af65;}.cls-18{fill:#23c172;}.cls-19{fill:#25af66;}</style><pattern id="New_Pattern_2" data-name="New Pattern 2" width="30" height="30" patternTransform="translate(-36.28 -24.79)" patternUnits="userSpaceOnUse" viewBox="0 0 30 30"><rect class="cls-1" width="30" height="30"/><path class="cls-2" d="M24.17,27.6V26.54a1.21,1.21,0,0,0-.48-.89q-4.23-3.54-4.28-4.83c0-.4.27-.74,1.94-.73a18.08,18.08,0,0,1,7.26,1.83c.33.19.6.06.6-.29V18.7a1.27,1.27,0,0,0-.6-1L20.36,13,11.88,8.19c-.34-.19-.6-.06-.6.28v5.07a1.24,1.24,0,0,0,.6,1h0a4.37,4.37,0,0,1,1.4,1.94c.2,1.07-1.2,1.67-3.69,1.14-.33-.19-.6-.06-.6.28V19a1.23,1.23,0,0,0,.6,1l14,8C23.91,28.08,24.17,28,24.17,27.6Z"/><path class="cls-2" d="M9.81,7,8,6,1.19,2.08C1,2,.79,2,.79,2.27v.15A.83.83,0,0,0,1,2.89H1l0,0L6.7,9.32l.07.07h0A2,2,0,0,0,7,9.59l2.8,1.6c.34.19.6.06.6-.29V8A1.26,1.26,0,0,0,9.81,7Z"/></pattern></defs><path class="cls-3" d="M363.69,373l-61.23,35.36-81.27-46.93-.09-5.8,49.71-30.74,92.6,42.24Z"/><path class="cls-3" d="M388.74,376.08l0-152.41L175.06,100.34l.36,152.54Z"/><path class="cls-4" d="M403.62,367.28V214.74l-15.27,8.93,0,152.41Z"/><path class="cls-5" d="M403.62,214.74,190.29,91.54l-15.23,8.8L388.35,223.67Z"/><path class="cls-6" d="M378.21,358.53l.09-129.22L185.18,117.94,185.24,247Z"/><path class="cls-7" d="M302,402.59,363,367.09l-83.2-47.84-59,36.29Z"/><path class="cls-3" d="M302,373.07l-30.46-17.74q0-23.47,0-47L302,326Z"/><path class="cls-8" d="M302,326l10.18,6q.09,17.6.19,35.18L302,373.07Z"/><path class="cls-6" d="M290.22,178.48q0,64.59,0,129.17l87.94,50.8.09-129.18Z"/><rect class="cls-9" x="96.38" y="162.9" width="78.67" height="20.18"/><path class="cls-10" d="M378.21,358.45l.09-129.18L185.17,117.94l.06,129Z"/><path class="cls-11" d="M235.18,249l-12-6.9c-5.84,3.37-7.36,4.38-13.2,7.75l-8.95-5"/><ellipse class="cls-11" cx="198.57" cy="243.12" rx="2.52" ry="3.01" transform="translate(-114.13 270.71) rotate(-55.8)"/><path class="cls-11" d="M248.15,221.16c-3.82-2.14-9-5-16-9.14-5.55-3.27-10.07-6-13.08-7.89l-8.7,5.44-4.48-2.69"/><ellipse class="cls-11" cx="203.38" cy="205" rx="2.52" ry="3.01" transform="translate(-80.48 258) rotate(-55.8)"/><path class="cls-11" d="M235.89,189.1l-12.65-7.44c0-3.35-.07-6.69-.11-10l-8.74-5"/><ellipse class="cls-11" cx="211.96" cy="164.74" rx="2.52" ry="3.01" transform="translate(-43.43 247.46) rotate(-55.8)"/><path class="cls-11" d="M303.3,228.3c14.17,8.08,23.81,13.78,38,21.87,5.84-3.37,7.36-4.38,13.2-7.75l8.95,5"/><ellipse class="cls-11" cx="365.91" cy="249.24" rx="2.52" ry="3.01" transform="translate(-45.89 411.8) rotate(-55.8)"/><path class="cls-11" d="M295.28,248.56l42.5,24.26,13.08,7.89,8.71-5.44L364,278"/><ellipse class="cls-11" cx="366.67" cy="279.75" rx="2.52" ry="3.01" transform="translate(-70.8 425.79) rotate(-55.8)"/><path class="cls-11" d="M312.86,283.5c9.61,5.59,14.82,8.79,24.43,14.37,0,3.34.07,6.68.11,10l8.74,5.06"/><ellipse class="cls-11" cx="348.67" cy="314.75" rx="2.52" ry="3.01" transform="translate(-107.63 426.24) rotate(-55.8)"/><path class="cls-12" d="M225.09,257.23l5.12,3,3.67-2.19,3.38,3.3L248.15,255l-1.91-3.36,3.83-2.25v-7.49L246.83,240c-.7-1.66-1.4-3.33-2.11-5l2.72-1.48-3.64-7.13-3.34.13-1.92-1.87-.7-4.09-5.71-3.4-3.19,1.88-3.85-3-10.88,6.38,1.92,3.36-4.48,2.62v6l3.84,3,1.29,3.74-1.94,2.61q1.28,3,2.57,6l4.42.34,2.62,2.27Z"/><path class="cls-13" d="M224.15,231.5a2.79,2.79,0,0,0-1.53.42c-1.15.75-1.29,2.3-1.41,3.05a13.9,13.9,0,0,0,5.86,13.23,7.57,7.57,0,0,0,4,1.17c2.23,0,3.06-2.05,3.31-3.64.86-5.26-3.74-11.14-6.22-12.9a6.94,6.94,0,0,0-3.72-1.35Zm-.52-3.1a9.58,9.58,0,0,1,5.25,1.82c5.28,3.54,8.71,11.57,7.77,17.34-.61,3.77-2.23,4.91-5.27,4.91a9.54,9.54,0,0,1-5.25-1.81c-5.29-3.55-8.87-11.23-7.93-17C218.81,229.89,220.59,228.4,223.63,228.4Z"/><ellipse class="cls-13" cx="227.43" cy="241.12" rx="2.89" ry="4.34" transform="translate(-94.78 163.38) rotate(-33.11)"/><path class="cls-14" d="M218.69,219.81l3.23,3.36,7-4.1-3.85-3Z"/><path class="cls-14" d="M211.65,228.42l3.85,0,1.27-1.51-.64-1.13Z"/><path class="cls-14" d="M230.21,260.24c.58-1.29,1.15-2.57,1.73-3.85l1.94,1.66Z"/><path class="cls-15" d="M240.46,243.77l6.37-3.75,3.24,1.87-6.39,3.77Z"/><path class="cls-16" d="M240.46,243.77l-1.92-4.11,2.44-2.33,3.78-2.21,2.07,4.9Z"/><path class="cls-17" d="M241,237.3c-1.2-2.39-2.41-4.77-3.61-7.15l6.39-3.73,3.66,7.12Z"/><path class="cls-14" d="M234.07,230.27l-2.56-1.35L230.42,225q3.72-2.19,7.42-4.4c.26,1.39.52,2.78.79,4.17l1.83,1.79Z"/><path class="cls-18" d="M230.42,225l-5.32-3.67,7-4.13,5.71,3.4Q234.14,222.8,230.42,225Z"/><path class="cls-18" d="M243.69,253.14v-7.48l6.39-3.77v7.49Z"/><path class="cls-19" d="M243.69,253.14l2.59-1.53,1.87,3.38-5.7,3.33-3.27-4.08v-1.81Z"/><path class="cls-12" d="M237.59,225.91q3,1.74,5.93,3.49l4.26-2.54,3.93,3.83,12.63-7.38-2.21-3.9,4.44-2.61v-8.69l-3.76-2.17-2.44-5.79,3.15-1.72-4.23-8.27-3.87.15-2.23-2.17-.81-4.74-6.62-4-3.71,2.19-4.46-3.5L225,185.54l2.23,3.9-5.2,3v6.93l4.46,3.49c.49,1.44,1,2.89,1.49,4.34l-2.25,3q1.5,3.48,3,7l5.14.39,3,2.64Z"/><path class="cls-13" d="M236.5,196.05a3.23,3.23,0,0,0-1.78.49c-1.33.88-1.5,2.67-1.64,3.54a16.13,16.13,0,0,0,6.8,15.35,8.71,8.71,0,0,0,4.69,1.36c2.59,0,3.55-2.38,3.85-4.23,1-6.1-4.34-12.92-7.22-15a8.08,8.08,0,0,0-4.32-1.57Zm-.61-3.59a11.14,11.14,0,0,1,6.09,2.1c6.14,4.12,10.11,13.43,9,20.13-.71,4.37-2.59,5.7-6.12,5.7a11.1,11.1,0,0,1-6.09-2.11c-6.13-4.11-10.28-13-9.2-19.72C230.3,194.19,232.36,192.46,235.89,192.46Z"/><ellipse class="cls-13" cx="240.3" cy="207.22" rx="3.36" ry="5.04" transform="translate(-74.17 164.9) rotate(-33.11)"/><path class="cls-14" d="M230.16,182.5l3.74,3.89,8.15-4.75-4.46-3.5Z"/><path class="cls-14" d="M222,192.48l4.47,0,1.48-1.75-.75-1.31Z"/><path class="cls-14" d="M243.52,229.4q1-2.24,2-4.47l2.24,1.93Z"/><path class="cls-15" d="M255.42,210.29l7.39-4.35,3.76,2.17-7.42,4.37Z"/><path class="cls-16" d="M255.42,210.29l-2.22-4.77,2.82-2.71,4.39-2.56,2.4,5.69Z"/><path class="cls-17" d="M256.07,202.78l-4.19-8.3,7.41-4.32q2.13,4.13,4.25,8.26Z"/><path class="cls-14" d="M248,194.63l-3-1.57-1.25-4.56,8.6-5.1c.31,1.61.61,3.22.91,4.84l2.13,2.07Z"/><path class="cls-18" d="M243.78,188.5l-6.19-4.26,8.17-4.79,6.62,4Z"/><path class="cls-18" d="M259.17,221.16l0-8.68,7.42-4.37v8.69Z"/><path class="cls-19" d="M259.17,221.16l3-1.77,2.17,3.92-6.61,3.86-3.79-4.73,0-2.1Z"/><path class="cls-12" d="M282.69,296l11.17,6.55,8-4.76,7.39,7.2,23.79-13.9-4.17-7.33,8.37-4.93V262.5l-7.07-4.09q-2.31-5.46-4.61-10.91l5.94-3.23-8-15.59-7.28.3-4.2-4.08L310.54,216l-12.48-7.44-7,4.12-8.39-6.58L258.9,220l4.2,7.34-9.79,5.74v13l8.39,6.57q1.41,4.08,2.81,8.18l-4.23,5.69q2.81,6.56,5.62,13.12l9.67.74,5.72,5Z"/><path class="cls-13" d="M280.63,239.79a5.93,5.93,0,0,0-3.35.92c-2.51,1.65-2.81,5-3.08,6.67-1.66,10.25,3.24,22.49,12.8,28.9a16.47,16.47,0,0,0,8.82,2.56c4.89,0,6.69-4.49,7.26-8,1.86-11.48-8.18-24.34-13.6-28.17a15.18,15.18,0,0,0-8.13-2.95C281,239.76,280.79,239.77,280.63,239.79ZM279.48,233A21,21,0,0,1,291,237c11.55,7.75,19,25.29,17,37.9-1.34,8.23-4.88,10.73-11.52,10.73a21,21,0,0,1-11.48-4c-11.55-7.75-19.36-24.54-17.32-37.14C269,236.28,272.85,233,279.48,233Z"/><ellipse class="cls-13" cx="287.79" cy="260.81" rx="6.32" ry="9.49" transform="translate(-95.74 199.54) rotate(-33.11)"/><path class="cls-14" d="M268.69,214.26l7.06,7.34,15.33-9-8.39-6.58Z"/><path class="cls-14" d="M253.31,233.07l8.42,0,2.78-3.3-1.41-2.47Z"/><path class="cls-14" d="M293.86,302.57q1.89-4.2,3.79-8.41l4.23,3.65Z"/><path class="cls-15" d="M316.25,266.6l13.94-8.19,7.07,4.09-14,8.22Z"/><path class="cls-16" d="M316.26,266.6l-4.19-9,5.32-5.09,8.27-4.83,4.53,10.72Z"/><path class="cls-17" d="M317.49,252.46l-7.89-15.63,13.95-8.15,8,15.56Z"/><path class="cls-14" d="M302.29,237.11l-5.59-3c-.79-2.86-1.58-5.73-2.36-8.59l16.2-9.61,1.71,9.11,4,3.91Z"/><path class="cls-18" d="M294.34,225.57l-11.65-8,15.37-9L310.54,216Z"/><path class="cls-18" d="M323.33,287.06l0-16.34,14-8.22v16.35Z"/><path class="cls-19" d="M323.33,287.06l5.64-3.33,4.09,7.38-12.45,7.28-7.14-8.92,0-3.94Z"/></svg>