<svg id="Laag_1" data-name="Laag 1" xmlns="http://www.w3.org/2000/svg" viewBox="0 0 1700 600"><defs><style>.cls-1{fill:#17191e;}</style></defs><path class="cls-1" d="M513.15,305.12V170h39.91q17.91,0,31.78,8a54.43,54.43,0,0,1,21.48,22.65q7.6,14.66,7.61,33.59V241q0,19.22-7.65,33.78a53.86,53.86,0,0,1-21.81,22.46q-14.16,7.89-32.43,7.89Zm23.48-116.19v97.44h15.31q18.46,0,28.35-11.55t10.07-33.18v-7.51q0-22-9.56-33.6t-27.74-11.6Z"/><path class="cls-1" d="M687.71,225.31a56.43,56.43,0,0,0-9.19-.74q-15.49,0-20.88,11.88v68.67H635.09V204.71h21.53l.56,11.23q8.16-13.09,22.64-13.09a21.28,21.28,0,0,1,8,1.3Z"/><path class="cls-1" d="M746.17,307q-21.43,0-34.75-13.5t-13.32-36v-2.78a60.24,60.24,0,0,1,5.8-26.87,44.08,44.08,0,0,1,16.29-18.42,43.06,43.06,0,0,1,23.38-6.59q20.5,0,31.69,13.09t11.18,37v9.1H720.83q1,12.44,8.31,19.67T747.47,289q15.49,0,25.24-12.53L784.86,288a40.55,40.55,0,0,1-16.1,14A50.37,50.37,0,0,1,746.17,307Zm-2.69-86a19,19,0,0,0-15,6.5q-5.7,6.5-7.28,18.09h43v-1.67q-.74-11.33-6-17.12T743.48,221Z"/><path class="cls-1" d="M863.93,305.12a34.68,34.68,0,0,1-2.6-9.38A35.09,35.09,0,0,1,835,307q-15.13,0-24.69-8.63A27.6,27.6,0,0,1,800.73,277q0-16,11.93-24.64t34.1-8.58h13.83v-6.59q0-7.8-4.36-12.48T843,220q-7.71,0-12.62,3.85a11.92,11.92,0,0,0-4.92,9.79H802.87a25,25,0,0,1,5.47-15.45,36.5,36.5,0,0,1,14.9-11.27,52.17,52.17,0,0,1,21-4.09q17.63,0,28.11,8.87t10.77,24.91v45.29q0,13.54,3.8,21.62v1.58Zm-24.78-16.24a25.75,25.75,0,0,0,12.58-3.25,21.77,21.77,0,0,0,8.86-8.72V258H848.43q-12.52,0-18.84,4.36a14.14,14.14,0,0,0-6.31,12.34A13.18,13.18,0,0,0,827.6,285C830.47,287.59,834.33,288.88,839.15,288.88Z"/><path class="cls-1" d="M928,204.71l.65,10.49q10.57-12.34,28.95-12.35,20.13,0,27.56,15.41,10.95-15.4,30.81-15.41,16.61,0,24.73,9.19t8.31,27.1v66h-22.55V239.79q0-9.56-4.18-14t-13.83-4.45q-7.7,0-12.57,4.13A21.77,21.77,0,0,0,989,236.26l.09,68.86H966.56V239q-.46-17.72-18.09-17.72-13.56,0-19.21,11v72.76H906.71V204.71Z"/><path class="cls-1" d="M1152.16,247.86h-54.38v57.26H1074.3V170h85.84v18.93h-62.36v40.19h54.38Z"/><path class="cls-1" d="M1170.34,254a59.18,59.18,0,0,1,5.85-26.59,42.68,42.68,0,0,1,16.43-18.19,46.23,46.23,0,0,1,24.31-6.36q20.33,0,33,13.09t13.69,34.7l.09,5.29a59.64,59.64,0,0,1-5.71,26.54,42.16,42.16,0,0,1-16.33,18.1,46.61,46.61,0,0,1-24.55,6.4q-21.24,0-34-14.15t-12.76-37.72Zm22.55,1.94q0,15.51,6.41,24.27t17.81,8.77q11.42,0,17.77-8.91t6.36-26.07q0-15.23-6.54-24.13a22.05,22.05,0,0,0-35.31-.14Q1192.9,238.48,1192.89,255.93Z"/><path class="cls-1" d="M1335.34,225.31a56.34,56.34,0,0,0-9.19-.74q-15.5,0-20.88,11.88v68.67h-22.55V204.71h21.53l.56,11.23q8.16-13.09,22.64-13.09a21.2,21.2,0,0,1,8,1.3Z"/><path class="cls-1" d="M1345.64,254.17q0-23.38,11-37.35t29.19-14q17.16,0,27,12l1-10.11h20.33v97.34q0,19.77-12.3,31.18t-33.18,11.42a53.33,53.33,0,0,1-21.57-4.6q-10.53-4.59-16-12l10.67-13.55q10.4,12.35,25.62,12.34,11.22,0,17.72-6.08t6.5-17.86v-6.77q-9.75,10.85-26,10.85-17.62,0-28.81-14T1345.64,254.17Zm22.45,2q0,15.12,6.17,23.8t17.13,8.68q13.63,0,20.23-11.69V232.73q-6.4-11.41-20-11.41-11.13,0-17.31,8.82T1368.09,256.12Z"/><path class="cls-1" d="M1501.54,307q-21.43,0-34.76-13.5t-13.31-36v-2.78a60.24,60.24,0,0,1,5.8-26.87,44.12,44.12,0,0,1,16.28-18.42,43.09,43.09,0,0,1,23.39-6.59q20.5,0,31.69,13.09t11.18,37v9.1H1476.2q1,12.44,8.31,19.67t18.33,7.24q15.5,0,25.24-12.53l12.15,11.6a40.62,40.62,0,0,1-16.1,14A50.37,50.37,0,0,1,1501.54,307Zm-2.69-86a19,19,0,0,0-15,6.5q-5.71,6.5-7.29,18.09h43v-1.67q-.75-11.33-6-17.12T1498.85,221Z"/><path class="cls-1" d="M614.86,433.17v-8.38a12.92,12.92,0,0,0,2.68,1.85,20.12,20.12,0,0,0,3.3,1.38,26.22,26.22,0,0,0,3.49.88,19,19,0,0,0,3.21.3q5.13,0,7.64-1.71a5.59,5.59,0,0,0,2.51-4.95,5.5,5.5,0,0,0-.83-3,8.85,8.85,0,0,0-2.35-2.34,25.35,25.35,0,0,0-3.53-2q-2-1-4.36-2-2.49-1.32-4.65-2.7a19.91,19.91,0,0,1-3.74-3,12.83,12.83,0,0,1-2.5-3.74,12.26,12.26,0,0,1-.9-4.89,11.36,11.36,0,0,1,1.55-6,13.15,13.15,0,0,1,4.1-4.2,18.82,18.82,0,0,1,5.8-2.47,27.72,27.72,0,0,1,6.63-.8q7.7,0,11.21,1.75v8q-4.17-3-10.73-3a19.1,19.1,0,0,0-3.61.34,10.78,10.78,0,0,0-3.21,1.13,6.87,6.87,0,0,0-2.31,2,5,5,0,0,0-.89,3,5.61,5.61,0,0,0,.69,2.84,7.27,7.27,0,0,0,2,2.18,19.41,19.41,0,0,0,3.21,1.94c1.26.62,2.73,1.3,4.39,2q2.57,1.33,4.84,2.8a23.14,23.14,0,0,1,4,3.25,14.12,14.12,0,0,1,2.73,3.95,11.6,11.6,0,0,1,1,4.94,11.61,11.61,0,0,1-5.56,10.45,17.81,17.81,0,0,1-5.86,2.33,32.89,32.89,0,0,1-7,.72c-.82,0-1.83-.07-3-.19s-2.42-.31-3.67-.55a34.34,34.34,0,0,1-3.56-.87A11.18,11.18,0,0,1,614.86,433.17Z"/><path class="cls-1" d="M731.43,435.94q-10.6,0-17-6.87t-6.38-17.88q0-11.82,6.5-18.87t17.63-7q10.34,0,16.63,6.84T755.15,410q0,12-6.46,19T731.43,435.94Zm.37-43.51a13.62,13.62,0,0,0-10.95,5q-4.23,5-4.22,13.23t4.1,13.16a13.23,13.23,0,0,0,10.73,5q7,0,11.11-4.75t4.07-13.3q0-8.79-3.95-13.57T731.8,392.43Z"/><path class="cls-1" d="M847.28,435.12H820.14v-49h8.13v42.15h19Z"/><path class="cls-1" d="M946.89,415.29q0,20.65-19.55,20.65-18.74,0-18.73-19.86v-30h8.13v28.3q0,14.43,11.21,14.43,10.8,0,10.81-13.91V386.1h8.13Z"/><path class="cls-1" d="M1045.85,393h-14.08v42.11h-8.13V393h-14V386.1h36.26Z"/><path class="cls-1" d="M1117.37,435.12H1109v-49h8.37Z"/><path class="cls-1" d="M1205.64,435.94q-10.61,0-17-6.87t-6.38-17.88q0-11.82,6.5-18.87t17.63-7q10.32,0,16.63,6.84t6.31,17.87q0,12-6.46,19T1205.64,435.94Zm.37-43.51a13.62,13.62,0,0,0-11,5q-4.23,5-4.22,13.23t4.1,13.16a13.23,13.23,0,0,0,10.73,5q7,0,11.11-4.75t4.07-13.3q0-8.79-3.95-13.57T1206,392.43Z"/><path class="cls-1" d="M1335.91,435.12H1327l-23.41-36a16.29,16.29,0,0,1-1.47-2.84h-.2a51.25,51.25,0,0,1,.27,6.74v32.13h-7.86v-49h9.47l22.62,35.17c1,1.46,1.57,2.46,1.85,3h.13a44.76,44.76,0,0,1-.34-6.6V386.1h7.83Z"/><path class="cls-1" d="M1401.79,433.17v-8.38a12.66,12.66,0,0,0,2.68,1.85,20.12,20.12,0,0,0,3.3,1.38,25.84,25.84,0,0,0,3.49.88,19,19,0,0,0,3.21.3c3.42,0,6-.57,7.64-1.71a5.62,5.62,0,0,0,2.51-4.95,5.43,5.43,0,0,0-.84-3,9,9,0,0,0-2.34-2.34,24.92,24.92,0,0,0-3.54-2c-1.35-.65-2.81-1.33-4.35-2q-2.5-1.32-4.65-2.7a19.67,19.67,0,0,1-3.75-3,12.8,12.8,0,0,1-2.49-3.74,12.26,12.26,0,0,1-.91-4.89,11.27,11.27,0,0,1,1.56-6,13,13,0,0,1,4.1-4.2,18.86,18.86,0,0,1,5.79-2.47,27.85,27.85,0,0,1,6.63-.8q7.7,0,11.22,1.75v8q-4.17-3-10.74-3a19,19,0,0,0-3.6.34,11,11,0,0,0-3.22,1.13,6.93,6.93,0,0,0-2.3,2,4.89,4.89,0,0,0-.89,3,5.71,5.71,0,0,0,.68,2.84,7.4,7.4,0,0,0,2,2.18,20,20,0,0,0,3.22,1.94q1.89.93,4.39,2,2.57,1.33,4.83,2.8a22.4,22.4,0,0,1,4,3.25,14.36,14.36,0,0,1,2.74,3.95,11.6,11.6,0,0,1,1,4.94,12.22,12.22,0,0,1-1.51,6.28,12.06,12.06,0,0,1-4.05,4.17,17.89,17.89,0,0,1-5.86,2.33,33,33,0,0,1-7,.72c-.82,0-1.83-.07-3-.19s-2.42-.31-3.68-.55a34.14,34.14,0,0,1-3.55-.87A11.18,11.18,0,0,1,1401.79,433.17Z"/><path class="cls-1" d="M148.12,301.7a2.12,2.12,0,0,0-2.08,1.69,36.7,36.7,0,0,0,.7,18.63c6.42,20.22,32.61,34.13,65.61,33.92a2.13,2.13,0,0,0,2.12-2.12q0-25,0-50a2.12,2.12,0,0,0-2.12-2.12Z"/><path class="cls-1" d="M443.35,301.7a2.11,2.11,0,0,1,2.08,1.69,36.7,36.7,0,0,1-.7,18.63c-6.42,20.22-32.61,34.13-65.61,33.92a2.13,2.13,0,0,1-2.12-2.12q0-25,0-50a2.11,2.11,0,0,1,2.12-2.12Z"/><path class="cls-1" d="M366.7,423.7c-9.57.08-15,.2-20.32-3.39-6-4.09-8.62-10.72-9.78-15.34a2.13,2.13,0,0,0-2.06-1.6H305.75l-49.12,0a2.13,2.13,0,0,0-2.06,1.6c-1.17,4.62-3.75,11.25-9.79,15.33-5.32,3.59-10.75,3.46-20.32,3.38-7-.06-17.69-.12-31.76,0a2.13,2.13,0,0,0-2.11,2.12v9.32a2.12,2.12,0,0,0,2.12,2.12l92.71,0h0l113,0a2.12,2.12,0,0,0,2.12-2.12q0-4.67,0-9.32a2.12,2.12,0,0,0-2.11-2.12C384.39,423.59,373.64,423.64,366.7,423.7Z"/><path class="cls-1" d="M241.2,153.37l-5.32-14.63a3.93,3.93,0,1,0-7.38,2.69l5.32,14.63a3.93,3.93,0,0,0,7.38-2.69Z"/><path class="cls-1" d="M276,173.26l-.9-2.47h0l-2.38-6.54a3.93,3.93,0,0,0-7.38,2.69l.33.91h0l2.95,8.09a3.93,3.93,0,0,0,7.38-2.68Z"/><path class="cls-1" d="M230.63,199.92l-.44-1.22h0l-2.38-6.53h0l-.12-.34h0a3.93,3.93,0,0,0-7.35,2.68h0l.12.34h0l2.38,6.54h0l.44,1.22a3.93,3.93,0,0,0,7.38-2.69Z"/><path class="cls-1" d="M256.6,157.88l-3-8.1h0l-.84-2.32a3.93,3.93,0,0,0-7.38,2.69l2.38,6.54h0l1.41,3.87a3.93,3.93,0,1,0,7.38-2.68Z"/><path class="cls-1" d="M237.2,180l-2.94-8.09,0,0L233,168.53a3.93,3.93,0,0,0-7.38,2.68l2.38,6.54,0,0,1.81,5A3.93,3.93,0,1,0,237.2,180Z"/><path class="cls-1" d="M441.56,188.51l-.71-2-5.76-15.82-.71-2a2.11,2.11,0,0,0-2.72-1.26l-55.32,20.13a2.13,2.13,0,0,0-1.27,2.72h0a2.06,2.06,0,0,1-1.23,2.65l-80,29.12-11-30.22h0l-2.69-7.39a4.12,4.12,0,0,0-4.87-2.64,4,4,0,0,0-2.76,5.28l6.24,17.12a1.92,1.92,0,0,1,.11.71l.13,0,3.69,10.13a2.79,2.79,0,0,1-.24.9,2.69,2.69,0,0,1-4.33.77l-3.69-10.14.12-.05a1.86,1.86,0,0,1-.36-.61l-3.5-9.62h0l-9.9-27.18a4.11,4.11,0,0,0-4.86-2.65,4,4,0,0,0-2.76,5.28L267.5,211.1h0l2.95,8.12h0l3.93,10.8a2.51,2.51,0,0,1-.24.89,2.66,2.66,0,0,1-1.51,1.39,2.7,2.7,0,0,1-2.82-.62L262.3,211h0l-3.74-10.28-13.19-36.24a4,4,0,0,0-5.5-2.27,4.13,4.13,0,0,0-2,5.16L256.6,219h0l3.92,10.79a2.54,2.54,0,0,1-.23.9,2.69,2.69,0,0,1-4.33.77l-5.81-16h0l-3.75-10.28h0l-5-13.86a4.12,4.12,0,0,0-4.87-2.64,4,4,0,0,0-2.75,5.27l7.69,21.16a1.83,1.83,0,0,1,0,1.36l0,.05a2.72,2.72,0,0,1-1.51,1.39,2.68,2.68,0,0,1-2.22-.18,1.73,1.73,0,0,1-.78-1l-2.61-7.17h0a4.1,4.1,0,0,0-4.82-2.3,4,4,0,0,0-2.73,5.05h0l12.5,34.36h0l12.7,34.87a9.9,9.9,0,0,0,12.69,5.92l37.56-13.67a9.9,9.9,0,0,0,5.91-12.69L299.61,238l80-29.11a2.07,2.07,0,0,1,2.65,1.23v0a2.13,2.13,0,0,0,2.72,1.27l55.31-20.13A2.13,2.13,0,0,0,441.56,188.51Z"/><path class="cls-1" d="M364.52,301.75l-68.77,0-68.78,0a2.11,2.11,0,0,0-2.11,2.11q0,25,0,50.06a2.12,2.12,0,0,0,1.78,2.09,34,34,0,0,1,15.1,6.5c11.61,9,13.27,22.93,13.47,28.35a2.14,2.14,0,0,0,2.11,2h38.41l38.41,0a2.15,2.15,0,0,0,2.12-2c.2-5.42,1.88-19.38,13.49-28.34A33.91,33.91,0,0,1,364.84,356a2.11,2.11,0,0,0,1.77-2.08q0-25,0-50.07A2.1,2.1,0,0,0,364.52,301.75Zm-68.78,78.36a34.83,34.83,0,1,1,34.82-34.82A34.82,34.82,0,0,1,295.74,380.11Z"/><path class="cls-1" d="M322.18,346.81a1.11,1.11,0,0,0-.47-.91,8.56,8.56,0,0,0-2.39-1.19,8.9,8.9,0,0,0-4.43-.24.64.64,0,0,1-.56-.16l-.15.28h0c-2.51-2.69-2.31-4.46-.54-6.29h0a4.55,4.55,0,0,0,.3-5.55,2.54,2.54,0,0,0-.82-.81,4.28,4.28,0,0,0-6.79,3.42,4.71,4.71,0,0,0,1.1,2.94h0c1.77,1.83,2,3.6-.54,6.29h0c-.46,0-.85.5-1.15,1.05a.65.65,0,0,1-.42.34c-2.5.55-4.62,1.11-5.78,1.43a.6.6,0,0,1-.63-.19,4.63,4.63,0,0,0-.88-.77h0c-2.66-1.73-2.16-3.52-1-4.81h0a2.37,2.37,0,0,0,.18-2.91,1.41,1.41,0,0,0-.5-.5,2.32,2.32,0,0,0-3.66,1.88,2.27,2.27,0,0,0,.73,1.67h0c1.26,1.18,1.91,2.92-.61,4.88h0a6.31,6.31,0,0,0-1.47,2.15,4.73,4.73,0,0,0-.11.48l0,.34a.86.86,0,0,1-.59.68c-.54.16-1.14.32-1.79.45a15.65,15.65,0,0,1-2,.26.62.62,0,0,1-.67-.57l0-.39a9,9,0,0,0-.24-1.36,9.92,9.92,0,0,0-1.82-3.15h0c-2.62-2.71-2.16-4.48-.46-6.12h0a4.82,4.82,0,0,0,.5-6.27,2.65,2.65,0,0,0-.8-.8,4.73,4.73,0,0,0-7.56,3.74,4.59,4.59,0,0,0,.76,2.53h0c1.29,2,1.35,3.8-1.81,5.86h0a7.38,7.38,0,0,0-2.21,2.24,1,1,0,0,1-1.07.44l-.42-.1-.8-.19a1,1,0,0,0-1.18,1,26.44,26.44,0,0,0,52.83-1.06Z"/><path class="cls-1" d="M297.07,333.33a2.65,2.65,0,1,0-2.09-2.08A2.66,2.66,0,0,0,297.07,333.33Z"/></svg>