<svg id="Laag_1" data-name="Laag 1" xmlns="http://www.w3.org/2000/svg" viewBox="0 0 800 800"><defs><style>.cls-1{fill:#17191e;}.cls-2{fill:#f8f8f8;}</style></defs><rect class="cls-1" width="800" height="800"/><path class="cls-2" d="M70.08,434a4.8,4.8,0,0,0-4.72,3.84c-3.82,19-1.32,33.08,1.59,42.25,14.56,45.87,74,77.42,148.82,76.95a4.82,4.82,0,0,0,4.81-4.81q0-56.68,0-113.37a4.81,4.81,0,0,0-4.81-4.81Z"/><path class="cls-2" d="M739.78,434a4.8,4.8,0,0,1,4.71,3.84c3.82,19,1.32,33.08-1.59,42.25-14.56,45.87-74,77.42-148.82,76.95a4.82,4.82,0,0,1-4.81-4.81q0-56.68,0-113.37a4.81,4.81,0,0,1,4.81-4.81Z"/><path class="cls-2" d="M566.21,710.75c-21.71.18-34,.45-46.09-7.69-13.71-9.27-19.56-24.34-22.2-34.83a4.81,4.81,0,0,0-4.66-3.6l-65.31,0h0l-111.42,0a4.78,4.78,0,0,0-4.65,3.6c-2.65,10.48-8.51,25.55-22.23,34.8-12.07,8.14-24.39,7.86-46.1,7.67-15.75-.14-40.12-.27-72-.06a4.81,4.81,0,0,0-4.79,4.81v21.14a4.81,4.81,0,0,0,4.81,4.81l210.3.08h0l256.4.09A4.81,4.81,0,0,0,643,736.7q0-10.58,0-21.14a4.81,4.81,0,0,0-4.79-4.81C606.34,710.51,582,710.63,566.21,710.75Z"/><path class="cls-2" d="M561.52,434.18,405,434.13l-156.52-.06a4.81,4.81,0,0,0-4.81,4.81q0,57,0,113.94a4.81,4.81,0,0,0,4,4.75A77.08,77.08,0,0,1,282,572.37c26.42,20.41,30.21,52.17,30.67,64.52a4.85,4.85,0,0,0,4.8,4.63l87.43,0,87.42,0a4.86,4.86,0,0,0,4.81-4.63c.46-12.35,4.27-44.11,30.71-64.5a77.19,77.19,0,0,1,34.38-14.78,4.82,4.82,0,0,0,4-4.74q0-57,0-114A4.81,4.81,0,0,0,561.52,434.18ZM405,612.53a79.26,79.26,0,1,1,79.26-79.26A79.26,79.26,0,0,1,405,612.53Z"/><path class="cls-2" d="M465.27,536.6a2.41,2.41,0,0,0-1-2,20,20,0,0,0-5.47-2.73,20.52,20.52,0,0,0-10.13-.55,1.4,1.4,0,0,1-1.24-.35l-.35-.31h0c-5.73-5.2-5.26-9.23-1.24-13.66h0c2.74-3,3.61-7.75.66-12.42a6,6,0,0,0-1.88-1.85c-7.58-4.68-15.45.65-15.45,7.82a9.56,9.56,0,0,0,2.5,6.45h0c4,4.43,4.49,8.46-1.24,13.66h0a12.59,12.59,0,0,0-2.62,3.35,1.43,1.43,0,0,1-1,.75c-5.71,1.25-10.55,2.55-13.2,3.28a1.35,1.35,0,0,1-1.38-.4,9.68,9.68,0,0,0-2-1.79h0c-6.09-4-5-8-2.3-11h0a5.44,5.44,0,0,0,.27-6.87,2.64,2.64,0,0,0-.78-.78c-4.17-2.73-8.56.2-8.56,4.15a5.25,5.25,0,0,0,1.65,3.81h0c2.89,2.7,4.36,6.67-1.37,11.12h0a14.09,14.09,0,0,0-3.34,4.91,10.51,10.51,0,0,0-.25,1.11l-.13.78a1.89,1.89,0,0,1-1.32,1.52,36.56,36.56,0,0,1-4.1,1,38,38,0,0,1-4.55.61A1.39,1.39,0,0,1,384,545l-.08-.92a19.4,19.4,0,0,0-.55-3.09,22,22,0,0,0-4.15-7.19h0c-6-6.19-4.93-10.21-1.07-14h0c3.42-3.31,4.63-8.89,1.13-14.32a5.85,5.85,0,0,0-1.79-1.78c-8.43-5.42-17.28.5-17.28,8.49A10.54,10.54,0,0,0,361.9,518h0c2.94,4.51,3.07,8.66-4.14,13.37h0a16.94,16.94,0,0,0-5.07,5.15,2.23,2.23,0,0,1-2.39,1l-1-.23-1.9-.46A2.12,2.12,0,0,0,344.8,539a60.3,60.3,0,0,0,120.47-2.39Z"/><path class="cls-2" d="M408,506.06a6,6,0,1,0-4.74-4.74A6,6,0,0,0,408,506.06Z"/><path class="cls-2" d="M281.22,97.54,269.14,64.35a8.91,8.91,0,1,0-16.74,6.1l12.08,33.18a8.91,8.91,0,1,0,16.74-6.09Z"/><path class="cls-2" d="M360.05,142.65l-2-5.59h0l-5.4-14.83a8.91,8.91,0,1,0-16.74,6.09l.75,2.07h0l6.68,18.35a8.91,8.91,0,1,0,16.75-6.09Z"/><path class="cls-2" d="M257.24,203.14l-1-2.77h0l-5.4-14.83h0l-.28-.76h0a8.9,8.9,0,0,0-16.66,6.07h0l.28.77h0l5.4,14.83h0l1,2.76a8.91,8.91,0,0,0,16.74-6.09Z"/><path class="cls-2" d="M316.14,107.76,309.46,89.4h0l-1.91-5.26a8.91,8.91,0,0,0-16.75,6.09l5.4,14.83h0l3.2,8.79a8.91,8.91,0,1,0,16.74-6.09Z"/><path class="cls-2" d="M272.15,158l-6.68-18.36-.12.05-2.82-7.77A8.91,8.91,0,1,0,245.78,138l5.4,14.83.11,0,4.11,11.3a8.91,8.91,0,0,0,16.75-6.1Z"/><path class="cls-2" d="M735.71,177.25l-1.62-4.45L721,136.92l-1.62-4.44a4.81,4.81,0,0,0-6.17-2.88L587.77,175.27a4.82,4.82,0,0,0-2.87,6.17v0a4.69,4.69,0,0,1-2.8,6l-181.45,66-25-68.55h0l-6.1-16.75a9.35,9.35,0,0,0-11-6,9.16,9.16,0,0,0-6.25,12l14.14,38.85a4.18,4.18,0,0,1-.06,3.09l-.06.11a6.09,6.09,0,0,1-8.46,2.76,4,4,0,0,1-1.78-2.18l-8-21.83h0l-22.44-61.66a9.34,9.34,0,0,0-11-6,9.15,9.15,0,0,0-6.25,12l32.46,89.17h0l6.7,18.42a4.13,4.13,0,0,1-.06,3.09.54.54,0,0,1-.05.11,6.07,6.07,0,0,1-8.46,2.76,4,4,0,0,1-1.78-2.18L320.6,205l-29.92-82.2a9.15,9.15,0,0,0-12.48-5.15,9.36,9.36,0,0,0-4.61,11.69l42.57,117a4.13,4.13,0,0,1-.06,3.09l-.05.12a6.1,6.1,0,0,1-8.47,2.76,4,4,0,0,1-1.78-2.18l-12.75-35.05h0L281.6,183.63a9.35,9.35,0,0,0-11-6,9.15,9.15,0,0,0-6.25,12l17.46,48a4.18,4.18,0,0,1-.06,3.09.54.54,0,0,0,0,.11,6.08,6.08,0,0,1-8.47,2.76,4,4,0,0,1-1.78-2.18l-5.92-16.26h0a9.34,9.34,0,0,0-10.95-5.21,9.15,9.15,0,0,0-6.19,11.45h0l28.36,77.93h0l28.79,79.1a22.46,22.46,0,0,0,28.78,13.43l85.2-31A22.47,22.47,0,0,0,432.87,342l-19.15-52.61,181.45-66.05a4.7,4.7,0,0,1,6,2.81v0a4.82,4.82,0,0,0,6.17,2.87l125.48-45.67A4.81,4.81,0,0,0,735.71,177.25Z"/></svg>