<svg id="Laag_1" data-name="Laag 1" xmlns="http://www.w3.org/2000/svg" viewBox="0 0 800 800"><defs><style>.cls-1{fill:#fff;}</style></defs><path class="cls-1" d="M7.8,439.83a5.62,5.62,0,0,0-5.52,4.5C-2.2,466.55.73,483.07,4.14,493.82,21.2,547.54,90.77,584.5,178.45,584a5.65,5.65,0,0,0,5.63-5.63q0-66.41,0-132.79a5.64,5.64,0,0,0-5.63-5.64Z"/><path class="cls-1" d="M792.2,439.83a5.62,5.62,0,0,1,5.52,4.5c4.48,22.22,1.55,38.74-1.86,49.49C778.8,547.54,709.23,584.5,621.55,584a5.65,5.65,0,0,1-5.63-5.63q0-66.41,0-132.79a5.64,5.64,0,0,1,5.63-5.64Z"/><path class="cls-1" d="M588.91,764c-25.43.21-39.86.52-54-9-16.06-10.85-22.91-28.51-26-40.79a5.62,5.62,0,0,0-5.45-4.21l-76.51,0h0l-130.49,0A5.62,5.62,0,0,0,291,714.1c-3.1,12.27-10,29.92-26,40.76-14.13,9.53-28.57,9.21-54,9-18.44-.16-47-.32-84.37-.07A5.64,5.64,0,0,0,121,769.4v24.77a5.63,5.63,0,0,0,5.63,5.63l246.32.09h0l300.31.11a5.63,5.63,0,0,0,5.63-5.63q0-12.39,0-24.77a5.64,5.64,0,0,0-5.6-5.63C635.9,763.69,607.36,763.82,588.91,764Z"/><path class="cls-1" d="M583.42,440,400.09,440l-183.33-.06a5.63,5.63,0,0,0-5.64,5.63q0,66.72-.05,133.45a5.66,5.66,0,0,0,4.74,5.57,90.37,90.37,0,0,1,40.25,17.33C287,625.79,291.44,663,292,677.46a5.69,5.69,0,0,0,5.63,5.43l102.39,0,102.39,0a5.7,5.7,0,0,0,5.64-5.42c.54-14.46,5-51.66,36-75.55a90.44,90.44,0,0,1,40.27-17.3,5.65,5.65,0,0,0,4.73-5.56q0-66.74,0-133.46A5.63,5.63,0,0,0,583.42,440ZM400.06,648.93a92.83,92.83,0,1,1,92.83-92.83A92.83,92.83,0,0,1,400.06,648.93Z"/><path class="cls-1" d="M470.68,560a2.84,2.84,0,0,0-1.22-2.37,23.42,23.42,0,0,0-6.41-3.2,23.81,23.81,0,0,0-11.86-.64,1.7,1.7,0,0,1-1.46-.41l-.41-.37h0c-6.71-6.09-6.16-10.81-1.45-16h0c3.21-3.52,4.24-9.07.78-14.55a7.09,7.09,0,0,0-2.2-2.16c-8.88-5.49-18.1.76-18.1,9.16a11.22,11.22,0,0,0,2.93,7.55h0c4.71,5.19,5.25,9.91-1.45,16h0a14.69,14.69,0,0,0-3.07,3.93,1.67,1.67,0,0,1-1.12.87c-6.69,1.47-12.36,3-15.46,3.85a1.56,1.56,0,0,1-1.62-.48,11.61,11.61,0,0,0-2.39-2.09h0c-7.13-4.64-5.79-9.42-2.69-12.85h0a6.39,6.39,0,0,0,.32-8,3.23,3.23,0,0,0-.92-.92c-4.88-3.19-10,.24-10,4.87a6.08,6.08,0,0,0,1.94,4.45h0c3.37,3.17,5.1,7.82-1.62,13h0a16.58,16.58,0,0,0-3.91,5.75,12.38,12.38,0,0,0-.3,1.3l-.15.92a2.22,2.22,0,0,1-1.55,1.78,44.52,44.52,0,0,1-4.79,1.21,46.07,46.07,0,0,1-5.33.7,1.63,1.63,0,0,1-1.74-1.49l-.09-1.08a22,22,0,0,0-.65-3.62c-1.13-4.05-4.5-8-4.86-8.43h0c-7-7.25-5.78-12-1.25-16.35h0c4-3.87,5.42-10.4,1.32-16.77a7,7,0,0,0-2.09-2.08c-9.87-6.34-20.24.59-20.24,9.95a12.29,12.29,0,0,0,2,6.77h0c3.45,5.28,3.6,10.14-4.85,15.66h0a19.86,19.86,0,0,0-5.94,6A2.6,2.6,0,0,1,336,561l-1.16-.28-2.22-.53a2.5,2.5,0,0,0-3.09,2.57c2.23,36.8,33.18,66.38,70.5,66.38C438.33,629.17,469.9,598.08,470.68,560Z"/><path class="cls-1" d="M403.61,524.22a7.07,7.07,0,1,0-5.55-5.55A7.07,7.07,0,0,0,403.61,524.22Z"/><path class="cls-1" d="M254.05,242.87a7.14,7.14,0,0,0,11.51-2.05,6.88,6.88,0,0,0,.63-2.37L258.76,218l-12.13,4.42Z"/><path class="cls-1" d="M331.13,253.8a7.14,7.14,0,0,0,12.14-4.42l-20-54.84L311.17,199Z"/><path class="cls-1" d="M353.25,214.15a7.13,7.13,0,0,0,11.5-2.05,6.94,6.94,0,0,0,.63-2.37l-9.8-26.93-12.13,4.42Z"/><path class="cls-1" d="M294.34,253.12a7.13,7.13,0,0,0,11.5-2,6.94,6.94,0,0,0,.63-2.37L291,206.29l-12.14,4.42Z"/><path class="cls-1" d="M255.11,45.74,241,6.87A10.43,10.43,0,1,0,221.35,14L235.5,52.88a10.43,10.43,0,0,0,19.61-7.14Z"/><path class="cls-1" d="M347.43,98.57,345.05,92h0l-6.32-17.36a10.43,10.43,0,1,0-19.61,7.13l.88,2.42h0l7.82,21.5a10.43,10.43,0,1,0,19.61-7.14Z"/><path class="cls-1" d="M227,169.42l-1.17-3.24h0l-6.32-17.36h0l-.33-.9h0A10.43,10.43,0,0,0,199.63,155h0l.32.9h0l6.33,17.37h0l1.17,3.24A10.43,10.43,0,0,0,227,169.42Z"/><path class="cls-1" d="M296,57.71l-7.82-21.5h0L285.94,30a10.43,10.43,0,0,0-19.61,7.14l6.32,17.37h0l3.75,10.3A10.43,10.43,0,0,0,296,57.71Z"/><path class="cls-1" d="M244.48,116.56l-7.83-21.51-.13,0L233.21,86a10.43,10.43,0,0,0-19.61,7.14l6.32,17.37.13-.05,4.82,13.23a10.43,10.43,0,1,0,19.61-7.13Z"/><path class="cls-1" d="M787.44,139.1l-1.9-5.21q-7.63-21-15.29-42l-1.9-5.21a5.64,5.64,0,0,0-7.22-3.37l-147,53.5a5.64,5.64,0,0,0-3.37,7.22l0,.05a5.49,5.49,0,0,1-3.28,7L395,228.45l-29.22-80.29h0l-7.14-19.62a11,11,0,0,0-12.94-7,10.72,10.72,0,0,0-7.32,14L354.94,181a4.87,4.87,0,0,1-.07,3.62l-.06.13A7.12,7.12,0,0,1,344.9,188a4.74,4.74,0,0,1-2.09-2.56L333.5,159.9h0L307.22,87.68a11,11,0,0,0-12.94-7,10.71,10.71,0,0,0-7.32,14l38,104.44h0l7.86,21.58a4.87,4.87,0,0,1-.08,3.62l-.06.13a7.12,7.12,0,0,1-9.91,3.24,4.77,4.77,0,0,1-2.09-2.56l-19.46-53.47-35-96.28a10.72,10.72,0,0,0-14.62-6,11,11,0,0,0-5.4,13.7L296,220a4.87,4.87,0,0,1-.07,3.62l-.06.13A7.13,7.13,0,0,1,286,227a4.71,4.71,0,0,1-2.09-2.55L269,183.4h0l-13.41-36.83a11,11,0,0,0-12.93-7,10.71,10.71,0,0,0-7.32,14l20.45,56.2a4.87,4.87,0,0,1-.07,3.62l-.06.13a7.13,7.13,0,0,1-9.92,3.24,4.71,4.71,0,0,1-2.08-2.56l-6.93-19.05-.05,0a10.92,10.92,0,0,0-12.81-6.11,10.71,10.71,0,0,0-7.25,13.41h0l33.22,91.28h0l33.73,92.66a26.3,26.3,0,0,0,33.71,15.72L417,365.8a26.3,26.3,0,0,0,15.72-33.71l-22.43-61.62,212.53-77.36a5.49,5.49,0,0,1,7,3.28l0,.05a5.63,5.63,0,0,0,7.22,3.37l147-53.49A5.64,5.64,0,0,0,787.44,139.1Z"/><path class="cls-1" d="M254.05,242.87a7.14,7.14,0,0,0,11.51-2.05,6.88,6.88,0,0,0,.63-2.37L258.76,218l-12.13,4.42Z"/><path class="cls-1" d="M331.13,253.8a7.14,7.14,0,0,0,12.14-4.42l-20-54.84L311.17,199Z"/><path class="cls-1" d="M353.25,214.15a7.13,7.13,0,0,0,11.5-2.05,6.94,6.94,0,0,0,.63-2.37l-9.8-26.93-12.13,4.42Z"/><path class="cls-1" d="M294.34,253.12a7.13,7.13,0,0,0,11.5-2,6.94,6.94,0,0,0,.63-2.37L291,206.29l-12.14,4.42Z"/></svg>