<svg id="Laag_1" data-name="Laag 1" xmlns="http://www.w3.org/2000/svg" viewBox="0 0 800 800"><defs><style>.cls-1{fill:#f8f8f8;}.cls-2{fill:#17191e;}.cls-3{fill:none;}</style></defs><rect class="cls-1" width="800" height="800"/><path class="cls-2" d="M65.15,434a4.81,4.81,0,0,0-4.72,3.84c-3.82,19-1.31,33.08,1.6,42.25,14.56,45.87,74,77.42,148.82,76.95a4.81,4.81,0,0,0,4.8-4.81q0-56.68,0-113.37a4.81,4.81,0,0,0-4.81-4.81Z"/><path class="cls-2" d="M734.85,434a4.81,4.81,0,0,1,4.72,3.84c3.82,19,1.31,33.08-1.6,42.25-14.56,45.87-74,77.42-148.82,76.95a4.81,4.81,0,0,1-4.8-4.81q0-56.68,0-113.37a4.81,4.81,0,0,1,4.81-4.81Z"/><path class="cls-2" d="M561.29,710.75c-21.71.18-34,.45-46.09-7.69-13.72-9.27-19.57-24.34-22.21-34.83a4.79,4.79,0,0,0-4.65-3.6l-65.32,0h0l-111.41,0a4.8,4.8,0,0,0-4.66,3.6c-2.65,10.48-8.51,25.55-22.23,34.8-12.06,8.14-24.39,7.86-46.1,7.67-15.75-.14-40.12-.27-72-.06a4.81,4.81,0,0,0-4.78,4.81v21.14a4.81,4.81,0,0,0,4.81,4.81l210.3.08h0l256.39.09a4.81,4.81,0,0,0,4.81-4.81q0-10.58,0-21.14a4.81,4.81,0,0,0-4.78-4.81C601.41,710.51,577,710.63,561.29,710.75Z"/><path class="cls-2" d="M556.6,434.18l-156.53-.05-156.52-.06a4.81,4.81,0,0,0-4.81,4.81q0,57,0,113.94a4.82,4.82,0,0,0,4,4.75,77.08,77.08,0,0,1,34.36,14.8c26.43,20.41,30.21,52.17,30.67,64.52a4.86,4.86,0,0,0,4.81,4.63l87.42,0,87.42,0a4.86,4.86,0,0,0,4.81-4.63c.47-12.35,4.28-44.11,30.71-64.5a77.28,77.28,0,0,1,34.38-14.78,4.81,4.81,0,0,0,4-4.74q0-57,0-114A4.82,4.82,0,0,0,556.6,434.18ZM400.05,612.53a79.26,79.26,0,1,1,79.26-79.26A79.26,79.26,0,0,1,400.05,612.53Z"/><path class="cls-2" d="M460.35,536.6a2.45,2.45,0,0,0-1.05-2,19.85,19.85,0,0,0-5.47-2.73,20.49,20.49,0,0,0-10.12-.55,1.43,1.43,0,0,1-1.25-.35l-.35-.31h0c-5.72-5.2-5.26-9.23-1.23-13.66h0c2.74-3,3.62-7.75.66-12.42a5.83,5.83,0,0,0-1.88-1.85c-7.57-4.68-15.45.65-15.45,7.82a9.57,9.57,0,0,0,2.51,6.45h0c4,4.43,4.49,8.46-1.23,13.66h0a12.2,12.2,0,0,0-2.62,3.35,1.45,1.45,0,0,1-1,.75c-5.71,1.25-10.56,2.55-13.2,3.28a1.36,1.36,0,0,1-1.39-.4,9.44,9.44,0,0,0-2-1.79h0c-6.08-4-4.94-8-2.29-11h0a5.45,5.45,0,0,0,.27-6.87,2.76,2.76,0,0,0-.78-.78c-4.17-2.73-8.57.2-8.57,4.15a5.22,5.22,0,0,0,1.66,3.81h0c2.88,2.7,4.35,6.67-1.38,11.12h0a14.31,14.31,0,0,0-3.35,4.91,10.51,10.51,0,0,0-.25,1.11l-.13.78a1.88,1.88,0,0,1-1.32,1.52,36.92,36.92,0,0,1-4.09,1,38.23,38.23,0,0,1-4.55.61A1.4,1.4,0,0,1,379,545L379,544a18.79,18.79,0,0,0-.56-3.09,22,22,0,0,0-4.15-7.19h0c-6-6.19-4.94-10.21-1.07-14h0c3.42-3.31,4.63-8.89,1.13-14.32a5.74,5.74,0,0,0-1.79-1.78c-8.42-5.42-17.27.5-17.27,8.49A10.54,10.54,0,0,0,357,518h0c2.94,4.51,3.07,8.66-4.14,13.37h0a17.09,17.09,0,0,0-5.08,5.15,2.21,2.21,0,0,1-2.38,1l-1-.23-1.89-.46a2.14,2.14,0,0,0-2.64,2.19,60.3,60.3,0,0,0,120.48-2.39Z"/><path class="cls-2" d="M403.08,506.06a6,6,0,1,0-4.74-4.74A6,6,0,0,0,403.08,506.06Z"/><path class="cls-3" d="M275.4,265.84a6.09,6.09,0,0,0,9.82-1.74,6.35,6.35,0,0,0,.54-2l-6.34-17.43-10.37,3.78Z"/><path class="cls-3" d="M341.2,275.18a6.1,6.1,0,0,0,9.82-1.75,5.87,5.87,0,0,0,.54-2l-17-46.81-10.36,3.77Z"/><path class="cls-3" d="M360.08,241.32a6.1,6.1,0,0,0,9.83-1.74,6.42,6.42,0,0,0,.54-2l-8.37-23-10.37,3.77Z"/><path class="cls-3" d="M309.79,274.6a6.09,6.09,0,0,0,9.82-1.74,6.23,6.23,0,0,0,.54-2L307,234.62l-10.36,3.77Z"/><path class="cls-2" d="M276.29,97.54,264.21,64.35a8.91,8.91,0,0,0-16.74,6.1l12.08,33.18a8.91,8.91,0,1,0,16.74-6.09Z"/><path class="cls-2" d="M355.12,142.65l-2-5.59h0l-5.4-14.83a8.91,8.91,0,1,0-16.75,6.09l.76,2.07h0l6.68,18.35a8.91,8.91,0,1,0,16.74-6.09Z"/><path class="cls-2" d="M252.32,203.14l-1-2.77h0l-5.39-14.83h0l-.28-.76h0a8.91,8.91,0,0,0-16.67,6.07h0l.28.77h0l5.4,14.83h0l1,2.76a8.91,8.91,0,0,0,16.75-6.09Z"/><path class="cls-2" d="M311.22,107.76,304.54,89.4h0l-1.92-5.26a8.91,8.91,0,0,0-16.74,6.09l5.39,14.83h0l3.2,8.79a8.91,8.91,0,0,0,16.75-6.09Z"/><path class="cls-2" d="M267.22,158l-6.68-18.36-.11.05-2.83-7.77A8.91,8.91,0,1,0,240.86,138l5.39,14.83.12,0,4.11,11.3a8.91,8.91,0,0,0,16.74-6.1Z"/><path class="cls-2" d="M730.79,177.25l-1.62-4.45-13.06-35.88-1.62-4.44a4.81,4.81,0,0,0-6.16-2.88L582.85,175.27a4.81,4.81,0,0,0-2.88,6.17l0,0a4.7,4.7,0,0,1-2.81,6l-181.45,66-25-68.55h0l-6.09-16.75a9.36,9.36,0,0,0-11.05-6,9.16,9.16,0,0,0-6.25,12l14.14,38.85a4.13,4.13,0,0,1-.06,3.09,1.17,1.17,0,0,0-.05.11A6.09,6.09,0,0,1,353,219a4,4,0,0,1-1.79-2.18L343.23,195h0l-22.45-61.66a9.33,9.33,0,0,0-11-6,9.15,9.15,0,0,0-6.25,12l32.45,89.17h0l6.71,18.42a4.18,4.18,0,0,1-.06,3.09.54.54,0,0,0,0,.11,6.09,6.09,0,0,1-8.47,2.76,4,4,0,0,1-1.78-2.18L315.67,205l-29.92-82.2a9.14,9.14,0,0,0-12.48-5.15,9.34,9.34,0,0,0-4.6,11.69l42.56,117a4.13,4.13,0,0,1-.06,3.09.61.61,0,0,1-.05.12,6.09,6.09,0,0,1-8.46,2.76,4,4,0,0,1-1.78-2.18l-12.76-35.05h0l-11.44-31.44a9.36,9.36,0,0,0-11.05-6,9.15,9.15,0,0,0-6.25,12l17.46,48a4.13,4.13,0,0,1-.06,3.09.54.54,0,0,1,0,.11,6.07,6.07,0,0,1-8.46,2.76,4,4,0,0,1-1.79-2.18l-5.91-16.26h0a9.32,9.32,0,0,0-10.94-5.21,9.14,9.14,0,0,0-6.19,11.45h0l28.37,77.93h0l28.79,79.1a22.46,22.46,0,0,0,28.79,13.43l85.2-31A22.47,22.47,0,0,0,427.94,342l-19.15-52.61,181.45-66.05a4.69,4.69,0,0,1,6,2.8l0,.05a4.81,4.81,0,0,0,6.16,2.87l125.48-45.67A4.81,4.81,0,0,0,730.79,177.25Z"/><path class="cls-3" d="M275.4,265.84a6.09,6.09,0,0,0,9.82-1.74,6.35,6.35,0,0,0,.54-2l-6.34-17.43-10.37,3.78Z"/><path class="cls-3" d="M341.2,275.18a6.1,6.1,0,0,0,9.82-1.75,5.87,5.87,0,0,0,.54-2l-17-46.81-10.36,3.77Z"/><path class="cls-3" d="M360.08,241.32a6.1,6.1,0,0,0,9.83-1.74,6.42,6.42,0,0,0,.54-2l-8.37-23-10.37,3.77Z"/><path class="cls-3" d="M309.79,274.6a6.09,6.09,0,0,0,9.82-1.74,6.23,6.23,0,0,0,.54-2L307,234.62l-10.36,3.77Z"/></svg>