<svg id="Laag_1" data-name="Laag 1" xmlns="http://www.w3.org/2000/svg" viewBox="0 0 1700 600"><defs><style>.cls-1{fill:#17191e;}.cls-2{fill:#f8f8f8;}</style></defs><rect class="cls-1" x="-35.06" y="-46.4" width="1772.11" height="680.17"/><path class="cls-2" d="M513.15,306.27V171.16h39.91q17.91,0,31.78,8a54.34,54.34,0,0,1,21.48,22.64q7.6,14.66,7.61,33.59v6.78q0,19.2-7.65,33.77a53.8,53.8,0,0,1-21.81,22.46q-14.16,7.89-32.43,7.89Zm23.48-116.18v97.43h15.31q18.46,0,28.35-11.55t10.07-33.18v-7.51q0-22-9.56-33.59t-27.74-11.6Z"/><path class="cls-2" d="M687.71,226.46a56.43,56.43,0,0,0-9.19-.74q-15.49,0-20.88,11.88v68.67H635.09V205.86h21.53l.56,11.23Q665.34,204,679.82,204a21.08,21.08,0,0,1,8,1.3Z"/><path class="cls-2" d="M746.17,308.12q-21.43,0-34.75-13.5t-13.32-36v-2.78A60.24,60.24,0,0,1,703.9,229a44.14,44.14,0,0,1,16.29-18.42A43,43,0,0,1,743.57,204q20.5,0,31.69,13.08t11.18,37v9.09H720.83q1,12.44,8.31,19.67t18.33,7.24q15.49,0,25.24-12.53l12.15,11.6a40.48,40.48,0,0,1-16.1,14A50.37,50.37,0,0,1,746.17,308.12Zm-2.69-86a19,19,0,0,0-15,6.5q-5.7,6.5-7.28,18.09h43V245q-.74-11.31-6-17.12T743.48,222.1Z"/><path class="cls-2" d="M863.93,306.27a34.7,34.7,0,0,1-2.6-9.37A35.12,35.12,0,0,1,835,308.12q-15.13,0-24.69-8.63a27.6,27.6,0,0,1-9.56-21.34q0-16,11.93-24.64t34.1-8.58h13.83v-6.59q0-7.8-4.36-12.48T843,221.17q-7.71,0-12.62,3.85a11.93,11.93,0,0,0-4.92,9.79H802.87a25,25,0,0,1,5.47-15.45,36.5,36.5,0,0,1,14.9-11.27,52.34,52.34,0,0,1,21-4.08q17.63,0,28.11,8.86t10.77,24.91v45.29q0,13.55,3.8,21.62v1.58ZM839.15,290a25.64,25.64,0,0,0,12.58-3.25,21.71,21.71,0,0,0,8.86-8.72V259.13H848.43q-12.52,0-18.84,4.36a14.14,14.14,0,0,0-6.31,12.34,13.18,13.18,0,0,0,4.32,10.35C830.47,288.75,834.33,290,839.15,290Z"/><path class="cls-2" d="M928,205.86l.65,10.49Q939.19,204,957.56,204q20.13,0,27.56,15.4,10.95-15.4,30.81-15.4,16.61,0,24.73,9.18t8.31,27.1v66h-22.55V240.94q0-9.56-4.18-14t-13.83-4.46q-7.7,0-12.57,4.13A21.81,21.81,0,0,0,989,237.41l.09,68.86H966.56V240.2q-.46-17.73-18.09-17.73-13.56,0-19.21,11.05v72.75H906.71V205.86Z"/><path class="cls-2" d="M1152.16,249h-54.38v57.26H1074.3V171.16h85.84v18.93h-62.36v40.18h54.38Z"/><path class="cls-2" d="M1170.34,255.14a59.18,59.18,0,0,1,5.85-26.59,42.68,42.68,0,0,1,16.43-18.19,46.32,46.32,0,0,1,24.31-6.35q20.33,0,33,13.08t13.69,34.71l.09,5.29a59.67,59.67,0,0,1-5.71,26.54,42.19,42.19,0,0,1-16.33,18.09,46.61,46.61,0,0,1-24.55,6.4q-21.24,0-34-14.15t-12.76-37.72Zm22.55,1.95q0,15.5,6.41,24.26t17.81,8.77q11.42,0,17.77-8.91t6.36-26.07q0-15.22-6.54-24.13a22.05,22.05,0,0,0-35.31-.14Q1192.9,239.65,1192.89,257.09Z"/><path class="cls-2" d="M1335.34,226.46a56.34,56.34,0,0,0-9.19-.74q-15.5,0-20.88,11.88v68.67h-22.55V205.86h21.53l.56,11.23Q1313,204,1327.45,204a21,21,0,0,1,8,1.3Z"/><path class="cls-2" d="M1345.64,255.32q0-23.38,11-37.35t29.19-14q17.16,0,27,12l1-10.12h20.33v97.35q0,19.76-12.3,31.18t-33.18,11.41a53.48,53.48,0,0,1-21.57-4.59q-10.53-4.6-16-12l10.67-13.55Q1372.18,328,1387.4,328q11.22,0,17.72-6.07t6.5-17.87v-6.77q-9.75,10.86-26,10.85-17.62,0-28.81-14T1345.64,255.32Zm22.45,1.95q0,15.14,6.17,23.8t17.13,8.68q13.63,0,20.23-11.69V233.89q-6.4-11.41-20-11.42-11.13,0-17.31,8.82T1368.09,257.27Z"/><path class="cls-2" d="M1501.54,308.12q-21.43,0-34.76-13.5t-13.31-36v-2.78a60.24,60.24,0,0,1,5.8-26.87,44.18,44.18,0,0,1,16.28-18.42,43.08,43.08,0,0,1,23.39-6.58q20.5,0,31.69,13.08t11.18,37v9.09H1476.2q1,12.44,8.31,19.67t18.33,7.24q15.5,0,25.24-12.53l12.15,11.6a40.54,40.54,0,0,1-16.1,14A50.37,50.37,0,0,1,1501.54,308.12Zm-2.69-86a19,19,0,0,0-15,6.5q-5.71,6.5-7.29,18.09h43V245q-.75-11.31-6-17.12T1498.85,222.1Z"/><path class="cls-2" d="M614.86,434.32V426a12.9,12.9,0,0,0,2.68,1.84,21.06,21.06,0,0,0,3.3,1.39,27.8,27.8,0,0,0,3.49.87,19.07,19.07,0,0,0,3.21.31q5.13,0,7.64-1.71a5.61,5.61,0,0,0,2.51-5,5.45,5.45,0,0,0-.83-3,8.74,8.74,0,0,0-2.35-2.35,25.35,25.35,0,0,0-3.53-2q-2-1-4.36-2-2.49-1.33-4.65-2.7a20,20,0,0,1-3.74-3,12.7,12.7,0,0,1-2.5-3.74,12.26,12.26,0,0,1-.9-4.89,11.36,11.36,0,0,1,1.55-6,13.25,13.25,0,0,1,4.1-4.2,18.56,18.56,0,0,1,5.8-2.46,27.23,27.23,0,0,1,6.63-.81q7.7,0,11.21,1.75v8a18,18,0,0,0-10.73-3,20,20,0,0,0-3.61.34,10.78,10.78,0,0,0-3.21,1.13,7,7,0,0,0-2.31,2,5,5,0,0,0-.89,3,5.58,5.58,0,0,0,.69,2.84,7.18,7.18,0,0,0,2,2.19,20.13,20.13,0,0,0,3.21,1.93c1.26.63,2.73,1.3,4.39,2q2.57,1.34,4.84,2.8a23.61,23.61,0,0,1,4,3.25,14.26,14.26,0,0,1,2.73,3.95,11.63,11.63,0,0,1,1,4.94,12.18,12.18,0,0,1-1.51,6.29,12.06,12.06,0,0,1-4.05,4.17,18,18,0,0,1-5.86,2.32,32.89,32.89,0,0,1-7,.72,28.75,28.75,0,0,1-3-.19c-1.2-.12-2.42-.31-3.67-.55a34.34,34.34,0,0,1-3.56-.87A11.18,11.18,0,0,1,614.86,434.32Z"/><path class="cls-2" d="M731.43,437.09q-10.6,0-17-6.87t-6.38-17.88q0-11.82,6.5-18.86t17.63-7.05q10.34,0,16.63,6.84t6.31,17.88q0,12-6.46,19T731.43,437.09Zm.37-43.51a13.62,13.62,0,0,0-10.95,5q-4.23,5-4.22,13.23t4.1,13.16a13.21,13.21,0,0,0,10.73,5q7,0,11.11-4.75t4.07-13.3q0-8.78-3.95-13.57T731.8,393.58Z"/><path class="cls-2" d="M847.28,436.27H820.14v-49h8.13V429.4h19Z"/><path class="cls-2" d="M946.89,416.44q0,20.65-19.55,20.65-18.74,0-18.73-19.86v-30h8.13v28.31Q916.74,430,928,430q10.8,0,10.81-13.91V387.25h8.13Z"/><path class="cls-2" d="M1045.85,394.16h-14.08v42.11h-8.13V394.16h-14v-6.91h36.26Z"/><path class="cls-2" d="M1117.37,436.27H1109v-49h8.37Z"/><path class="cls-2" d="M1205.64,437.09q-10.61,0-17-6.87t-6.38-17.88q0-11.82,6.5-18.86t17.63-7.05q10.32,0,16.63,6.84t6.31,17.88q0,12-6.46,19T1205.64,437.09Zm.37-43.51a13.62,13.62,0,0,0-11,5q-4.23,5-4.22,13.23t4.1,13.16a13.21,13.21,0,0,0,10.73,5q7,0,11.11-4.75t4.07-13.3q0-8.78-3.95-13.57T1206,393.58Z"/><path class="cls-2" d="M1335.91,436.27H1327l-23.41-36a16.2,16.2,0,0,1-1.47-2.83h-.2a51.06,51.06,0,0,1,.27,6.73v32.13h-7.86v-49h9.47l22.62,35.18c1,1.45,1.57,2.46,1.85,3h.13a44.6,44.6,0,0,1-.34-6.59V387.25h7.83Z"/><path class="cls-2" d="M1401.79,434.32V426a12.64,12.64,0,0,0,2.68,1.84,21.06,21.06,0,0,0,3.3,1.39,27.38,27.38,0,0,0,3.49.87,19.07,19.07,0,0,0,3.21.31c3.42,0,6-.57,7.64-1.71a5.63,5.63,0,0,0,2.51-5,5.37,5.37,0,0,0-.84-3,8.84,8.84,0,0,0-2.34-2.35,24.92,24.92,0,0,0-3.54-2c-1.35-.65-2.81-1.33-4.35-2q-2.5-1.33-4.65-2.7a19.71,19.71,0,0,1-3.75-3,12.67,12.67,0,0,1-2.49-3.74,12.26,12.26,0,0,1-.91-4.89,11.27,11.27,0,0,1,1.56-6,13.15,13.15,0,0,1,4.1-4.2,18.61,18.61,0,0,1,5.79-2.46,27.35,27.35,0,0,1,6.63-.81q7.7,0,11.22,1.75v8a18,18,0,0,0-10.74-3,19.86,19.86,0,0,0-3.6.34,11,11,0,0,0-3.22,1.13,7,7,0,0,0-2.3,2,4.89,4.89,0,0,0-.89,3,5.68,5.68,0,0,0,.68,2.84,7.31,7.31,0,0,0,2,2.19,20.72,20.72,0,0,0,3.22,1.93c1.26.63,2.72,1.3,4.39,2q2.57,1.34,4.83,2.8a22.85,22.85,0,0,1,4,3.25,14.51,14.51,0,0,1,2.74,3.95,11.63,11.63,0,0,1,1,4.94,12.28,12.28,0,0,1-1.51,6.29,12.06,12.06,0,0,1-4.05,4.17,18.1,18.1,0,0,1-5.86,2.32,33,33,0,0,1-7,.72,28.43,28.43,0,0,1-3-.19c-1.2-.12-2.42-.31-3.68-.55a34.14,34.14,0,0,1-3.55-.87A11.18,11.18,0,0,1,1401.79,434.32Z"/><path class="cls-2" d="M148.12,302.85a2.13,2.13,0,0,0-2.08,1.69,36.68,36.68,0,0,0,.7,18.63c6.42,20.22,32.61,34.13,65.61,33.92a2.12,2.12,0,0,0,2.12-2.12q0-25,0-50a2.12,2.12,0,0,0-2.12-2.12Z"/><path class="cls-2" d="M443.35,302.85a2.12,2.12,0,0,1,2.08,1.69,36.68,36.68,0,0,1-.7,18.63c-6.42,20.22-32.61,34.13-65.61,33.92A2.12,2.12,0,0,1,377,355q0-25,0-50a2.11,2.11,0,0,1,2.12-2.12Z"/><path class="cls-2" d="M366.7,424.85c-9.57.08-15,.2-20.32-3.39-6-4.08-8.62-10.72-9.78-15.34a2.13,2.13,0,0,0-2.06-1.6H305.75l-49.12,0a2.13,2.13,0,0,0-2.06,1.6c-1.17,4.62-3.75,11.25-9.79,15.33-5.32,3.59-10.75,3.47-20.32,3.38-7-.06-17.69-.12-31.76,0a2.13,2.13,0,0,0-2.11,2.12v9.32a2.12,2.12,0,0,0,2.12,2.13l92.71,0h0l113,0a2.12,2.12,0,0,0,2.12-2.12c0-3.11,0-6.21,0-9.32a2.13,2.13,0,0,0-2.11-2.12C384.39,424.74,373.64,424.79,366.7,424.85Z"/><path class="cls-2" d="M241.2,154.52l-5.32-14.63a3.93,3.93,0,0,0-7.38,2.69l5.32,14.63a3.93,3.93,0,1,0,7.38-2.69Z"/><path class="cls-2" d="M276,174.41l-.9-2.47h0l-2.38-6.53a3.93,3.93,0,1,0-7.38,2.68l.33.91h0l2.95,8.1a3.93,3.93,0,0,0,7.38-2.69Z"/><path class="cls-2" d="M230.63,201.07l-.44-1.21h0l-2.38-6.54h0l-.12-.34h0a3.93,3.93,0,0,0-7.35,2.67h0l.12.33h0l2.38,6.53h0l.44,1.22a3.93,3.93,0,1,0,7.38-2.69Z"/><path class="cls-2" d="M256.6,159l-3-8.09h0l-.84-2.32a3.93,3.93,0,1,0-7.38,2.68l2.38,6.54h0l1.41,3.87A3.93,3.93,0,1,0,256.6,159Z"/><path class="cls-2" d="M237.2,181.18l-2.94-8.1,0,0L233,169.68a3.93,3.93,0,0,0-7.38,2.68L228,178.9l0,0,1.81,5a3.93,3.93,0,1,0,7.38-2.68Z"/><path class="cls-2" d="M441.56,189.66l-.71-2-5.76-15.81-.71-2a2.12,2.12,0,0,0-2.72-1.26l-55.32,20.13a2.13,2.13,0,0,0-1.27,2.72v0a2.07,2.07,0,0,1-1.23,2.65l-80,29.11-11-30.22h0l-2.69-7.38A4.12,4.12,0,0,0,275.3,183a4,4,0,0,0-2.76,5.28l6.24,17.13a1.87,1.87,0,0,1,.11.7l.13,0,3.69,10.13a2.72,2.72,0,0,1-.24.9,2.69,2.69,0,0,1-4.33.77l-3.69-10.14.12,0a2.09,2.09,0,0,1-.36-.61l-3.5-9.63h0l-9.9-27.18a4.12,4.12,0,0,0-4.86-2.65,4,4,0,0,0-2.76,5.28l14.31,39.31h0l2.95,8.12h0l3.93,10.8a2.51,2.51,0,0,1-.24.89,2.62,2.62,0,0,1-1.51,1.39,2.7,2.7,0,0,1-2.82-.62l-7.51-20.64h0l-3.74-10.28-13.19-36.23a4,4,0,0,0-5.5-2.28,4.13,4.13,0,0,0-2,5.16l18.76,51.56h0l3.92,10.79a2.49,2.49,0,0,1-.23.9,2.69,2.69,0,0,1-4.33.77l-5.81-16h0l-3.75-10.28h0l-5-13.86a4.12,4.12,0,0,0-4.87-2.64,4,4,0,0,0-2.75,5.28l7.69,21.15a1.83,1.83,0,0,1,0,1.36l0,0a2.68,2.68,0,0,1-3.73,1.22,1.79,1.79,0,0,1-.78-1l-2.61-7.16h0a4.1,4.1,0,0,0-4.82-2.3,4,4,0,0,0-2.73,5h0l12.5,34.36h0l12.7,34.87a9.9,9.9,0,0,0,12.69,5.92L302.14,275a9.9,9.9,0,0,0,5.91-12.69l-8.44-23.2,80-29.11a2.07,2.07,0,0,1,2.65,1.24h0a2.13,2.13,0,0,0,2.72,1.27l55.31-20.13A2.13,2.13,0,0,0,441.56,189.66Z"/><path class="cls-2" d="M364.52,302.9l-68.77,0-68.78,0a2.12,2.12,0,0,0-2.11,2.11q0,25,0,50.07a2.11,2.11,0,0,0,1.78,2.08,34,34,0,0,1,15.1,6.5c11.61,9,13.27,22.93,13.47,28.36a2.13,2.13,0,0,0,2.11,2h38.41l38.41,0a2.15,2.15,0,0,0,2.12-2c.2-5.42,1.88-19.38,13.49-28.34a34,34,0,0,1,15.11-6.49,2.11,2.11,0,0,0,1.77-2.08q0-25,0-50.07A2.11,2.11,0,0,0,364.52,302.9Zm-68.78,78.36a34.83,34.83,0,1,1,34.82-34.82A34.82,34.82,0,0,1,295.74,381.26Z"/><path class="cls-2" d="M322.18,348a1.11,1.11,0,0,0-.47-.91,8.78,8.78,0,0,0-6.82-1.43.64.64,0,0,1-.56-.16l-.15.29h0c-2.51-2.7-2.31-4.47-.54-6.3h0a4.55,4.55,0,0,0,.3-5.55,2.54,2.54,0,0,0-.82-.81,4.28,4.28,0,0,0-6.79,3.42,4.71,4.71,0,0,0,1.1,2.94h0c1.77,1.83,2,3.6-.54,6.3h0c-.46,0-.85.49-1.15,1.05a.66.66,0,0,1-.42.33c-2.5.55-4.62,1.11-5.78,1.43a.6.6,0,0,1-.63-.19,4.26,4.26,0,0,0-.88-.76h0c-2.66-1.74-2.16-3.53-1-4.82h0a2.37,2.37,0,0,0,.18-2.91,1.49,1.49,0,0,0-.5-.5,2.32,2.32,0,0,0-3.66,1.88,2.27,2.27,0,0,0,.73,1.67h0c1.26,1.18,1.91,2.92-.61,4.88h0A6.31,6.31,0,0,0,291.7,350a4.61,4.61,0,0,0-.11.49l0,.33a.86.86,0,0,1-.59.68,17.29,17.29,0,0,1-1.79.45,15.65,15.65,0,0,1-2,.26.62.62,0,0,1-.67-.57l0-.39a9,9,0,0,0-.24-1.36,9.92,9.92,0,0,0-1.82-3.15h0c-2.62-2.71-2.16-4.48-.46-6.12h0a4.82,4.82,0,0,0,.5-6.27,2.65,2.65,0,0,0-.8-.8c-3.69-2.35-7.56.24-7.56,3.74a4.57,4.57,0,0,0,.76,2.53h0c1.29,2,1.35,3.8-1.81,5.87h0a7.38,7.38,0,0,0-2.21,2.24,1,1,0,0,1-1.07.45l-.42-.1-.8-.2a1,1,0,0,0-1.18,1A26.44,26.44,0,0,0,322.18,348Z"/><path class="cls-2" d="M297.07,334.48A2.65,2.65,0,1,0,295,332.4,2.66,2.66,0,0,0,297.07,334.48Z"/></svg>