<svg id="Logo" xmlns="http://www.w3.org/2000/svg" viewBox="0 0 1080 1080"><defs><style>.cls-1{fill:#391f34;}.cls-2{fill:#fa5c52;}</style></defs><rect class="cls-1" x="-0.92" y="-0.31" width="1080.92" height="1080.92"/><path class="cls-2" d="M652.82-.31H-.92l88.07,63H991.93L1080-.31Z"/><path class="cls-2" d="M652.82,1080.62H-.92l88.07-63H991.93l88.07,63Z"/><path class="cls-2" d="M1080,653.44V-.31q-31.51,44-63,88.07V992.54l63,88.08Z"/><path class="cls-2" d="M-.92,653.44V-.31l63,88.07V992.54l-63,88.08Z"/><path class="cls-2" d="M229.67,786.41Q212.35,832.85,195,879.28q-17.34-46.42-34.67-92.87V499.14h69.34Z"/><rect class="cls-2" x="160.33" y="194.52" width="69.34" height="287.28"/><path class="cls-2" d="M368.94,481.8H321.26L174.73,194.52h71Z"/><path class="cls-2" d="M849.4,786.41l34.68,92.87q17.32-46.42,34.67-92.87V499.14H849.4Z"/><rect class="cls-2" x="849.4" y="194.52" width="69.34" height="287.28" transform="translate(1768.15 676.33) rotate(-180)"/><path class="cls-2" d="M710.14,481.8h47.67q73.28-143.64,146.54-287.28h-71Z"/><path class="cls-2" d="M701.08,500.07,539.54,781.5Q458.77,640.79,378,500.07l-52.36.92,213.9,378.29L753.44,501Z"/><polygon class="cls-2" points="539.86 572.8 467.48 447.44 395.11 322.08 539.86 322.08 684.61 322.08 612.23 447.44 539.86 572.8"/></svg>